G75*
G70*
%OFA0B0*%
%FSLAX24Y24*%
%IPPOS*%
%LPD*%
%AMOC8*
5,1,8,0,0,1.08239X$1,22.5*
%
%ADD10C,0.0100*%
%ADD11C,0.0040*%
%ADD12C,0.0030*%
%ADD13C,0.0080*%
%ADD14C,0.0050*%
%ADD15C,0.0000*%
%ADD16R,0.0118X0.0059*%
%ADD17R,0.0118X0.0118*%
%ADD18C,0.0060*%
%ADD19C,0.0059*%
D10*
X000175Y000150D02*
X015175Y000150D01*
X015175Y012650D01*
X000175Y012650D01*
X000175Y000150D01*
D11*
X006769Y008149D02*
X006769Y008456D01*
X006999Y008610D02*
X006999Y008917D01*
X006846Y008763D02*
X007153Y008763D01*
X007229Y008303D02*
X006769Y008303D01*
X009328Y008303D02*
X009788Y008303D01*
X009558Y008610D02*
X009558Y008917D01*
X009328Y008456D02*
X009328Y008149D01*
X007262Y011317D02*
X007262Y011777D01*
X007492Y011777D01*
X007569Y011700D01*
X007569Y011547D01*
X007492Y011470D01*
X007262Y011470D01*
X007108Y011470D02*
X007108Y011777D01*
X006801Y011777D02*
X006801Y011547D01*
X006878Y011470D01*
X007108Y011470D01*
X006648Y011547D02*
X006648Y011700D01*
X006571Y011777D01*
X006418Y011777D01*
X006341Y011700D01*
X006341Y011547D01*
X006418Y011470D01*
X006571Y011470D01*
X006648Y011547D01*
X006188Y011470D02*
X005957Y011470D01*
X005881Y011547D01*
X005881Y011700D01*
X005957Y011777D01*
X006188Y011777D01*
X005727Y011700D02*
X005727Y011547D01*
X005650Y011470D01*
X005497Y011470D01*
X005420Y011547D01*
X005420Y011700D01*
X005497Y011777D01*
X005650Y011777D01*
X005727Y011700D01*
X005267Y011700D02*
X005267Y011470D01*
X005113Y011470D02*
X005113Y011700D01*
X005190Y011777D01*
X005267Y011700D01*
X005113Y011700D02*
X005037Y011777D01*
X004960Y011777D01*
X004960Y011470D01*
X004806Y011777D02*
X004730Y011777D01*
X004576Y011623D01*
X004576Y011470D02*
X004576Y011777D01*
X004423Y011700D02*
X004423Y011623D01*
X004116Y011623D01*
X004116Y011547D02*
X004116Y011700D01*
X004193Y011777D01*
X004346Y011777D01*
X004423Y011700D01*
X004346Y011470D02*
X004193Y011470D01*
X004116Y011547D01*
X003962Y011470D02*
X003962Y011700D01*
X003886Y011777D01*
X003732Y011777D01*
X003655Y011700D01*
X003655Y011930D02*
X003655Y011470D01*
X003348Y011470D02*
X003348Y011930D01*
X003195Y011930D02*
X003502Y011930D01*
X007722Y011930D02*
X007799Y011930D01*
X007799Y011470D01*
X007722Y011470D02*
X007876Y011470D01*
X008029Y011547D02*
X008029Y011700D01*
X008106Y011777D01*
X008259Y011777D01*
X008336Y011700D01*
X008336Y011623D01*
X008029Y011623D01*
X008029Y011547D02*
X008106Y011470D01*
X008259Y011470D01*
X008950Y011470D02*
X009103Y011470D01*
X009027Y011470D02*
X009027Y011930D01*
X009103Y011930D02*
X008950Y011930D01*
X009257Y011777D02*
X009487Y011777D01*
X009564Y011700D01*
X009564Y011470D01*
X009794Y011547D02*
X009871Y011470D01*
X009794Y011547D02*
X009794Y011854D01*
X009717Y011777D02*
X009871Y011777D01*
X010024Y011700D02*
X010101Y011777D01*
X010254Y011777D01*
X010331Y011700D01*
X010331Y011623D01*
X010024Y011623D01*
X010024Y011547D02*
X010024Y011700D01*
X010024Y011547D02*
X010101Y011470D01*
X010254Y011470D01*
X010485Y011470D02*
X010485Y011777D01*
X010638Y011777D02*
X010715Y011777D01*
X010638Y011777D02*
X010485Y011623D01*
X010868Y011700D02*
X011022Y011700D01*
X010945Y011854D02*
X011022Y011930D01*
X010945Y011854D02*
X010945Y011470D01*
X011175Y011547D02*
X011252Y011623D01*
X011482Y011623D01*
X011482Y011700D02*
X011482Y011470D01*
X011252Y011470D01*
X011175Y011547D01*
X011252Y011777D02*
X011405Y011777D01*
X011482Y011700D01*
X011636Y011700D02*
X011636Y011547D01*
X011712Y011470D01*
X011942Y011470D01*
X012096Y011547D02*
X012096Y011700D01*
X012173Y011777D01*
X012326Y011777D01*
X012403Y011700D01*
X012403Y011623D01*
X012096Y011623D01*
X012096Y011547D02*
X012173Y011470D01*
X012326Y011470D01*
X011942Y011777D02*
X011712Y011777D01*
X011636Y011700D01*
X009257Y011777D02*
X009257Y011470D01*
X013195Y009054D02*
X013195Y008977D01*
X013272Y008900D01*
X013425Y008900D01*
X013502Y008823D01*
X013502Y008747D01*
X013425Y008670D01*
X013272Y008670D01*
X013195Y008747D01*
X013195Y009054D02*
X013272Y009130D01*
X013425Y009130D01*
X013502Y009054D01*
X013655Y009054D02*
X013732Y009130D01*
X013886Y009130D01*
X013962Y009054D01*
X013962Y008747D01*
X013886Y008670D01*
X013732Y008670D01*
X013655Y008747D01*
X013655Y009054D01*
X013732Y008130D02*
X013655Y008054D01*
X013655Y007977D01*
X013732Y007900D01*
X013886Y007900D01*
X013962Y007823D01*
X013962Y007747D01*
X013886Y007670D01*
X013732Y007670D01*
X013655Y007747D01*
X013502Y007747D02*
X013425Y007670D01*
X013272Y007670D01*
X013195Y007747D01*
X013195Y008054D01*
X013272Y008130D01*
X013425Y008130D01*
X013502Y008054D01*
X013732Y008130D02*
X013886Y008130D01*
X013962Y008054D01*
X013886Y007130D02*
X013732Y007130D01*
X013655Y007054D01*
X013655Y006747D01*
X013732Y006670D01*
X013886Y006670D01*
X013962Y006747D01*
X014116Y006823D02*
X014423Y007130D01*
X014116Y007130D02*
X014116Y006670D01*
X014193Y006900D02*
X014423Y006670D01*
X013962Y007054D02*
X013886Y007130D01*
X013502Y007054D02*
X013425Y007130D01*
X013272Y007130D01*
X013195Y007054D01*
X013195Y006977D01*
X013272Y006900D01*
X013425Y006900D01*
X013502Y006823D01*
X013502Y006747D01*
X013425Y006670D01*
X013272Y006670D01*
X013195Y006747D01*
X013195Y006130D02*
X013195Y005670D01*
X013502Y005670D01*
X013655Y005670D02*
X013962Y005670D01*
X014116Y005670D02*
X014346Y005670D01*
X014423Y005747D01*
X014423Y006054D01*
X014346Y006130D01*
X014116Y006130D01*
X014116Y005670D01*
X013809Y005900D02*
X013655Y005900D01*
X013655Y006130D02*
X013655Y005670D01*
X013655Y006130D02*
X013962Y006130D01*
X014576Y005977D02*
X014730Y006130D01*
X014730Y005670D01*
X014883Y005670D02*
X014576Y005670D01*
X013962Y005130D02*
X013962Y004823D01*
X013809Y004670D01*
X013655Y004823D01*
X013655Y005130D01*
X013502Y005130D02*
X013195Y005130D01*
X013195Y004900D01*
X013348Y004977D01*
X013425Y004977D01*
X013502Y004900D01*
X013502Y004747D01*
X013425Y004670D01*
X013272Y004670D01*
X013195Y004747D01*
X013272Y004130D02*
X013195Y004054D01*
X013195Y003747D01*
X013272Y003670D01*
X013425Y003670D01*
X013502Y003747D01*
X013502Y003900D01*
X013348Y003900D01*
X013502Y004054D02*
X013425Y004130D01*
X013272Y004130D01*
X013655Y004130D02*
X013962Y003670D01*
X013962Y004130D01*
X014116Y004130D02*
X014346Y004130D01*
X014423Y004054D01*
X014423Y003747D01*
X014346Y003670D01*
X014116Y003670D01*
X014116Y004130D01*
X013655Y004130D02*
X013655Y003670D01*
D12*
X011698Y002620D02*
X011451Y002620D01*
X011575Y002497D02*
X011575Y002744D01*
X011390Y001485D02*
X011294Y001485D01*
X011245Y001437D01*
X011144Y001485D02*
X011144Y001243D01*
X011096Y001195D01*
X010999Y001195D01*
X010951Y001243D01*
X010951Y001485D01*
X011245Y001243D02*
X011294Y001195D01*
X011390Y001195D01*
X011439Y001243D01*
X011439Y001292D01*
X011390Y001340D01*
X011342Y001340D01*
X011390Y001340D02*
X011439Y001388D01*
X011439Y001437D01*
X011390Y001485D01*
X010780Y001000D02*
X010780Y000815D01*
X010656Y000815D02*
X010656Y001000D01*
X010718Y001062D01*
X010780Y001000D01*
X010656Y001000D02*
X010595Y001062D01*
X010533Y001062D01*
X010533Y000815D01*
X010412Y000877D02*
X010412Y001000D01*
X010350Y001062D01*
X010226Y001062D01*
X010165Y001000D01*
X010165Y000877D01*
X010226Y000815D01*
X010350Y000815D01*
X010412Y000877D01*
X010043Y000815D02*
X009858Y000815D01*
X009796Y000877D01*
X009796Y001000D01*
X009858Y001062D01*
X010043Y001062D01*
X009674Y000877D02*
X009674Y000815D01*
X009612Y000815D01*
X009612Y000877D01*
X009674Y000877D01*
X009491Y000815D02*
X009491Y001000D01*
X009429Y001062D01*
X009244Y001062D01*
X009244Y000815D01*
X009122Y000815D02*
X008998Y000815D01*
X009060Y000815D02*
X009060Y001062D01*
X008998Y001062D01*
X009060Y001185D02*
X009060Y001247D01*
X008815Y001185D02*
X008815Y000815D01*
X008876Y000815D02*
X008753Y000815D01*
X008631Y000815D02*
X008631Y001000D01*
X008570Y001062D01*
X008446Y001062D01*
X008385Y001000D01*
X008263Y001062D02*
X008078Y001062D01*
X008016Y001000D01*
X008016Y000877D01*
X008078Y000815D01*
X008263Y000815D01*
X008263Y000753D02*
X008263Y001062D01*
X008385Y001185D02*
X008385Y000815D01*
X008263Y000753D02*
X008201Y000692D01*
X008140Y000692D01*
X007895Y000815D02*
X007895Y001062D01*
X007895Y000815D02*
X007710Y000815D01*
X007648Y000877D01*
X007648Y001062D01*
X007526Y001000D02*
X007526Y000815D01*
X007341Y000815D01*
X007280Y000877D01*
X007341Y000938D01*
X007526Y000938D01*
X007526Y001000D02*
X007465Y001062D01*
X007341Y001062D01*
X007096Y001185D02*
X007096Y000815D01*
X007157Y000815D02*
X007034Y000815D01*
X006913Y000815D02*
X006727Y000815D01*
X006666Y000877D01*
X006666Y001000D01*
X006727Y001062D01*
X006913Y001062D01*
X007034Y001185D02*
X007096Y001185D01*
X006544Y001000D02*
X006544Y000815D01*
X006421Y000815D02*
X006421Y001000D01*
X006483Y001062D01*
X006544Y001000D01*
X006421Y001000D02*
X006359Y001062D01*
X006297Y001062D01*
X006297Y000815D01*
X006175Y000753D02*
X006175Y001062D01*
X006175Y001185D02*
X006175Y001247D01*
X005930Y001000D02*
X005930Y000815D01*
X006052Y000692D02*
X006114Y000692D01*
X006175Y000753D01*
X005930Y001000D02*
X005869Y001062D01*
X005684Y001062D01*
X005684Y000815D01*
X005562Y000815D02*
X005562Y001000D01*
X005500Y001062D01*
X005377Y001062D01*
X005377Y000938D02*
X005562Y000938D01*
X005562Y000815D02*
X005377Y000815D01*
X005315Y000877D01*
X005377Y000938D01*
X005194Y000815D02*
X005009Y000815D01*
X004947Y000877D01*
X004947Y001062D01*
X004825Y001062D02*
X004763Y001062D01*
X004640Y000938D01*
X004640Y000815D02*
X004640Y001062D01*
X005194Y001062D02*
X005194Y000753D01*
X005132Y000692D01*
X005070Y000692D01*
X005583Y001795D02*
X005583Y002085D01*
X005680Y001988D01*
X005776Y002085D01*
X005776Y001795D01*
X005877Y001795D02*
X005877Y001988D01*
X005974Y002085D01*
X006071Y001988D01*
X006071Y001795D01*
X006172Y001795D02*
X006366Y002085D01*
X006467Y002037D02*
X006515Y002085D01*
X006612Y002085D01*
X006660Y002037D01*
X006660Y001988D01*
X006612Y001940D01*
X006660Y001892D01*
X006660Y001843D01*
X006612Y001795D01*
X006515Y001795D01*
X006467Y001843D01*
X006366Y001795D02*
X006172Y002085D01*
X006071Y001940D02*
X005877Y001940D01*
X006563Y001940D02*
X006612Y001940D01*
X006761Y001988D02*
X006858Y002085D01*
X006858Y001795D01*
X006761Y001795D02*
X006955Y001795D01*
X007056Y001843D02*
X007056Y001892D01*
X007104Y001940D01*
X007201Y001940D01*
X007250Y001892D01*
X007250Y001843D01*
X007201Y001795D01*
X007104Y001795D01*
X007056Y001843D01*
X007104Y001940D02*
X007056Y001988D01*
X007056Y002037D01*
X007104Y002085D01*
X007201Y002085D01*
X007250Y002037D01*
X007250Y001988D01*
X007201Y001940D01*
X007351Y001940D02*
X007351Y002085D01*
X007544Y002085D01*
X007645Y002085D02*
X007645Y001940D01*
X007742Y001988D01*
X007790Y001988D01*
X007839Y001940D01*
X007839Y001843D01*
X007790Y001795D01*
X007694Y001795D01*
X007645Y001843D01*
X007544Y001843D02*
X007496Y001795D01*
X007399Y001795D01*
X007351Y001843D01*
X007351Y001940D02*
X007447Y001988D01*
X007496Y001988D01*
X007544Y001940D01*
X007544Y001843D01*
X007645Y002085D02*
X007839Y002085D01*
X008753Y001185D02*
X008815Y001185D01*
X010340Y004515D02*
X010340Y004805D01*
X010485Y004805D01*
X010533Y004757D01*
X010533Y004660D01*
X010485Y004612D01*
X010340Y004612D01*
X010437Y004612D02*
X010533Y004515D01*
X010635Y004563D02*
X010683Y004515D01*
X010780Y004515D01*
X010828Y004563D01*
X010828Y004612D01*
X010780Y004660D01*
X010731Y004660D01*
X010780Y004660D02*
X010828Y004708D01*
X010828Y004757D01*
X010780Y004805D01*
X010683Y004805D01*
X010635Y004757D01*
X011122Y005007D02*
X011122Y005201D01*
X011171Y005249D01*
X011267Y005249D01*
X011316Y005201D01*
X011417Y005201D02*
X011465Y005249D01*
X011562Y005249D01*
X011610Y005201D01*
X011610Y005152D01*
X011417Y004959D01*
X011610Y004959D01*
X011316Y005007D02*
X011267Y004959D01*
X011171Y004959D01*
X011122Y005007D01*
X008809Y005098D02*
X008809Y005147D01*
X008760Y005195D01*
X008664Y005195D01*
X008615Y005147D01*
X008514Y005195D02*
X008514Y004953D01*
X008466Y004905D01*
X008369Y004905D01*
X008321Y004953D01*
X008321Y005195D01*
X008615Y004905D02*
X008809Y005098D01*
X008809Y004905D02*
X008615Y004905D01*
X006378Y005465D02*
X006185Y005465D01*
X006281Y005465D02*
X006281Y005755D01*
X006185Y005658D01*
X006083Y005755D02*
X006083Y005513D01*
X006035Y005465D01*
X005938Y005465D01*
X005890Y005513D01*
X005890Y005755D01*
X004139Y005145D02*
X003945Y005145D01*
X004042Y005145D02*
X004042Y005435D01*
X003945Y005338D01*
X003844Y005387D02*
X003796Y005435D01*
X003699Y005435D01*
X003651Y005387D01*
X003651Y005193D01*
X003699Y005145D01*
X003796Y005145D01*
X003844Y005193D01*
X002533Y004312D02*
X002348Y004312D01*
X002286Y004250D01*
X002348Y004188D01*
X002471Y004188D01*
X002533Y004127D01*
X002471Y004065D01*
X002286Y004065D01*
X002165Y004065D02*
X002165Y004312D01*
X002165Y004065D02*
X001979Y004065D01*
X001918Y004127D01*
X001918Y004312D01*
X001796Y004312D02*
X001672Y004312D01*
X001734Y004374D02*
X001734Y004127D01*
X001796Y004065D01*
X001551Y004065D02*
X001366Y004065D01*
X001304Y004127D01*
X001366Y004188D01*
X001551Y004188D01*
X001551Y004250D02*
X001489Y004312D01*
X001366Y004312D01*
X001182Y004312D02*
X001058Y004312D01*
X001120Y004374D02*
X001120Y004127D01*
X001182Y004065D01*
X000937Y004127D02*
X000875Y004065D01*
X000752Y004065D01*
X000690Y004127D01*
X000752Y004250D02*
X000875Y004250D01*
X000937Y004188D01*
X000937Y004127D01*
X000752Y004250D02*
X000690Y004312D01*
X000690Y004374D01*
X000752Y004435D01*
X000875Y004435D01*
X000937Y004374D01*
X001551Y004250D02*
X001551Y004065D01*
X000875Y003335D02*
X000937Y003274D01*
X000937Y003150D01*
X000875Y003088D01*
X000690Y003088D01*
X000690Y002965D02*
X000690Y003335D01*
X000875Y003335D01*
X001058Y003150D02*
X001058Y003027D01*
X001120Y002965D01*
X001243Y002965D01*
X001305Y003027D01*
X001305Y003150D01*
X001243Y003212D01*
X001120Y003212D01*
X001058Y003150D01*
X001427Y003212D02*
X001427Y003027D01*
X001488Y002965D01*
X001550Y003027D01*
X001612Y002965D01*
X001674Y003027D01*
X001674Y003212D01*
X001795Y003150D02*
X001857Y003212D01*
X001980Y003212D01*
X002042Y003150D01*
X002042Y003088D01*
X001795Y003088D01*
X001795Y003027D02*
X001795Y003150D01*
X001795Y003027D02*
X001857Y002965D01*
X001980Y002965D01*
X002163Y002965D02*
X002163Y003212D01*
X002163Y003088D02*
X002287Y003212D01*
X002348Y003212D01*
X005813Y010665D02*
X005937Y010788D01*
X005937Y011035D01*
X006058Y010974D02*
X006120Y011035D01*
X006243Y011035D01*
X006305Y010974D01*
X006305Y010912D01*
X006058Y010665D01*
X006305Y010665D01*
X006427Y010665D02*
X006488Y010665D01*
X006488Y010727D01*
X006427Y010727D01*
X006427Y010665D01*
X006611Y010727D02*
X006611Y010974D01*
X006673Y011035D01*
X006796Y011035D01*
X006858Y010974D01*
X006611Y010727D01*
X006673Y010665D01*
X006796Y010665D01*
X006858Y010727D01*
X006858Y010974D01*
X006979Y010727D02*
X007041Y010727D01*
X007041Y010665D01*
X006979Y010665D01*
X006979Y010727D01*
X007163Y010665D02*
X007410Y010665D01*
X007287Y010665D02*
X007287Y011035D01*
X007163Y010912D01*
X007900Y010974D02*
X007900Y010727D01*
X008147Y010974D01*
X008147Y010727D01*
X008085Y010665D01*
X007962Y010665D01*
X007900Y010727D01*
X007900Y010974D02*
X007962Y011035D01*
X008085Y011035D01*
X008147Y010974D01*
X008268Y010912D02*
X008392Y011035D01*
X008392Y010665D01*
X008515Y010665D02*
X008268Y010665D01*
X008637Y010850D02*
X008883Y010850D01*
X009005Y010974D02*
X009067Y011035D01*
X009190Y011035D01*
X009252Y010974D01*
X009252Y010912D01*
X009005Y010665D01*
X009252Y010665D01*
X009373Y010727D02*
X009620Y010974D01*
X009620Y010727D01*
X009558Y010665D01*
X009435Y010665D01*
X009373Y010727D01*
X009373Y010974D01*
X009435Y011035D01*
X009558Y011035D01*
X009620Y010974D01*
X009741Y010912D02*
X009865Y011035D01*
X009865Y010665D01*
X009988Y010665D02*
X009741Y010665D01*
X010110Y010665D02*
X010357Y010912D01*
X010357Y010974D01*
X010295Y011035D01*
X010171Y011035D01*
X010110Y010974D01*
X010110Y010665D02*
X010357Y010665D01*
X005813Y010665D02*
X005690Y010788D01*
X005690Y011035D01*
D13*
X011925Y009150D02*
X011925Y008650D01*
X012175Y008400D01*
X011925Y008150D01*
X011925Y007650D01*
X012175Y007400D01*
X011925Y007150D01*
X011925Y006650D01*
X012175Y006400D01*
X011925Y006150D01*
X011925Y005650D01*
X012175Y005400D01*
X011925Y005150D01*
X011925Y004650D01*
X012175Y004400D01*
X011925Y004150D01*
X011925Y003650D01*
X012175Y003400D01*
X012675Y003400D01*
X012925Y003650D01*
X012925Y004150D01*
X012675Y004400D01*
X012925Y004650D01*
X012925Y005150D01*
X012675Y005400D01*
X012925Y005650D01*
X012925Y006150D01*
X012675Y006400D01*
X012925Y006650D01*
X012925Y007150D01*
X012675Y007400D01*
X012925Y007650D01*
X012925Y008150D01*
X012675Y008400D01*
X012925Y008650D01*
X012925Y009150D01*
X012675Y009400D01*
X012175Y009400D01*
X011925Y009150D01*
X007775Y004400D02*
X007775Y003100D01*
X007425Y004250D02*
X007427Y004270D01*
X007433Y004288D01*
X007442Y004306D01*
X007454Y004321D01*
X007469Y004333D01*
X007487Y004342D01*
X007505Y004348D01*
X007525Y004350D01*
X007545Y004348D01*
X007563Y004342D01*
X007581Y004333D01*
X007596Y004321D01*
X007608Y004306D01*
X007617Y004288D01*
X007623Y004270D01*
X007625Y004250D01*
X007623Y004230D01*
X007617Y004212D01*
X007608Y004194D01*
X007596Y004179D01*
X007581Y004167D01*
X007563Y004158D01*
X007545Y004152D01*
X007525Y004150D01*
X007505Y004152D01*
X007487Y004158D01*
X007469Y004167D01*
X007454Y004179D01*
X007442Y004194D01*
X007433Y004212D01*
X007427Y004230D01*
X007425Y004250D01*
X005775Y004400D02*
X005775Y003100D01*
D14*
X006225Y006430D02*
X003825Y006430D01*
X003825Y009130D02*
X006525Y009130D01*
D15*
X001025Y011150D02*
X001027Y011200D01*
X001033Y011250D01*
X001043Y011300D01*
X001056Y011348D01*
X001073Y011396D01*
X001094Y011442D01*
X001118Y011486D01*
X001146Y011528D01*
X001177Y011568D01*
X001211Y011605D01*
X001248Y011640D01*
X001287Y011671D01*
X001328Y011700D01*
X001372Y011725D01*
X001418Y011747D01*
X001465Y011765D01*
X001513Y011779D01*
X001562Y011790D01*
X001612Y011797D01*
X001662Y011800D01*
X001713Y011799D01*
X001763Y011794D01*
X001813Y011785D01*
X001861Y011773D01*
X001909Y011756D01*
X001955Y011736D01*
X002000Y011713D01*
X002043Y011686D01*
X002083Y011656D01*
X002121Y011623D01*
X002156Y011587D01*
X002189Y011548D01*
X002218Y011507D01*
X002244Y011464D01*
X002267Y011419D01*
X002286Y011372D01*
X002301Y011324D01*
X002313Y011275D01*
X002321Y011225D01*
X002325Y011175D01*
X002325Y011125D01*
X002321Y011075D01*
X002313Y011025D01*
X002301Y010976D01*
X002286Y010928D01*
X002267Y010881D01*
X002244Y010836D01*
X002218Y010793D01*
X002189Y010752D01*
X002156Y010713D01*
X002121Y010677D01*
X002083Y010644D01*
X002043Y010614D01*
X002000Y010587D01*
X001955Y010564D01*
X001909Y010544D01*
X001861Y010527D01*
X001813Y010515D01*
X001763Y010506D01*
X001713Y010501D01*
X001662Y010500D01*
X001612Y010503D01*
X001562Y010510D01*
X001513Y010521D01*
X001465Y010535D01*
X001418Y010553D01*
X001372Y010575D01*
X001328Y010600D01*
X001287Y010629D01*
X001248Y010660D01*
X001211Y010695D01*
X001177Y010732D01*
X001146Y010772D01*
X001118Y010814D01*
X001094Y010858D01*
X001073Y010904D01*
X001056Y010952D01*
X001043Y011000D01*
X001033Y011050D01*
X001027Y011100D01*
X001025Y011150D01*
X001025Y001650D02*
X001027Y001700D01*
X001033Y001750D01*
X001043Y001800D01*
X001056Y001848D01*
X001073Y001896D01*
X001094Y001942D01*
X001118Y001986D01*
X001146Y002028D01*
X001177Y002068D01*
X001211Y002105D01*
X001248Y002140D01*
X001287Y002171D01*
X001328Y002200D01*
X001372Y002225D01*
X001418Y002247D01*
X001465Y002265D01*
X001513Y002279D01*
X001562Y002290D01*
X001612Y002297D01*
X001662Y002300D01*
X001713Y002299D01*
X001763Y002294D01*
X001813Y002285D01*
X001861Y002273D01*
X001909Y002256D01*
X001955Y002236D01*
X002000Y002213D01*
X002043Y002186D01*
X002083Y002156D01*
X002121Y002123D01*
X002156Y002087D01*
X002189Y002048D01*
X002218Y002007D01*
X002244Y001964D01*
X002267Y001919D01*
X002286Y001872D01*
X002301Y001824D01*
X002313Y001775D01*
X002321Y001725D01*
X002325Y001675D01*
X002325Y001625D01*
X002321Y001575D01*
X002313Y001525D01*
X002301Y001476D01*
X002286Y001428D01*
X002267Y001381D01*
X002244Y001336D01*
X002218Y001293D01*
X002189Y001252D01*
X002156Y001213D01*
X002121Y001177D01*
X002083Y001144D01*
X002043Y001114D01*
X002000Y001087D01*
X001955Y001064D01*
X001909Y001044D01*
X001861Y001027D01*
X001813Y001015D01*
X001763Y001006D01*
X001713Y001001D01*
X001662Y001000D01*
X001612Y001003D01*
X001562Y001010D01*
X001513Y001021D01*
X001465Y001035D01*
X001418Y001053D01*
X001372Y001075D01*
X001328Y001100D01*
X001287Y001129D01*
X001248Y001160D01*
X001211Y001195D01*
X001177Y001232D01*
X001146Y001272D01*
X001118Y001314D01*
X001094Y001358D01*
X001073Y001404D01*
X001056Y001452D01*
X001043Y001500D01*
X001033Y001550D01*
X001027Y001600D01*
X001025Y001650D01*
X013025Y001650D02*
X013027Y001700D01*
X013033Y001750D01*
X013043Y001800D01*
X013056Y001848D01*
X013073Y001896D01*
X013094Y001942D01*
X013118Y001986D01*
X013146Y002028D01*
X013177Y002068D01*
X013211Y002105D01*
X013248Y002140D01*
X013287Y002171D01*
X013328Y002200D01*
X013372Y002225D01*
X013418Y002247D01*
X013465Y002265D01*
X013513Y002279D01*
X013562Y002290D01*
X013612Y002297D01*
X013662Y002300D01*
X013713Y002299D01*
X013763Y002294D01*
X013813Y002285D01*
X013861Y002273D01*
X013909Y002256D01*
X013955Y002236D01*
X014000Y002213D01*
X014043Y002186D01*
X014083Y002156D01*
X014121Y002123D01*
X014156Y002087D01*
X014189Y002048D01*
X014218Y002007D01*
X014244Y001964D01*
X014267Y001919D01*
X014286Y001872D01*
X014301Y001824D01*
X014313Y001775D01*
X014321Y001725D01*
X014325Y001675D01*
X014325Y001625D01*
X014321Y001575D01*
X014313Y001525D01*
X014301Y001476D01*
X014286Y001428D01*
X014267Y001381D01*
X014244Y001336D01*
X014218Y001293D01*
X014189Y001252D01*
X014156Y001213D01*
X014121Y001177D01*
X014083Y001144D01*
X014043Y001114D01*
X014000Y001087D01*
X013955Y001064D01*
X013909Y001044D01*
X013861Y001027D01*
X013813Y001015D01*
X013763Y001006D01*
X013713Y001001D01*
X013662Y001000D01*
X013612Y001003D01*
X013562Y001010D01*
X013513Y001021D01*
X013465Y001035D01*
X013418Y001053D01*
X013372Y001075D01*
X013328Y001100D01*
X013287Y001129D01*
X013248Y001160D01*
X013211Y001195D01*
X013177Y001232D01*
X013146Y001272D01*
X013118Y001314D01*
X013094Y001358D01*
X013073Y001404D01*
X013056Y001452D01*
X013043Y001500D01*
X013033Y001550D01*
X013027Y001600D01*
X013025Y001650D01*
X013025Y011150D02*
X013027Y011200D01*
X013033Y011250D01*
X013043Y011300D01*
X013056Y011348D01*
X013073Y011396D01*
X013094Y011442D01*
X013118Y011486D01*
X013146Y011528D01*
X013177Y011568D01*
X013211Y011605D01*
X013248Y011640D01*
X013287Y011671D01*
X013328Y011700D01*
X013372Y011725D01*
X013418Y011747D01*
X013465Y011765D01*
X013513Y011779D01*
X013562Y011790D01*
X013612Y011797D01*
X013662Y011800D01*
X013713Y011799D01*
X013763Y011794D01*
X013813Y011785D01*
X013861Y011773D01*
X013909Y011756D01*
X013955Y011736D01*
X014000Y011713D01*
X014043Y011686D01*
X014083Y011656D01*
X014121Y011623D01*
X014156Y011587D01*
X014189Y011548D01*
X014218Y011507D01*
X014244Y011464D01*
X014267Y011419D01*
X014286Y011372D01*
X014301Y011324D01*
X014313Y011275D01*
X014321Y011225D01*
X014325Y011175D01*
X014325Y011125D01*
X014321Y011075D01*
X014313Y011025D01*
X014301Y010976D01*
X014286Y010928D01*
X014267Y010881D01*
X014244Y010836D01*
X014218Y010793D01*
X014189Y010752D01*
X014156Y010713D01*
X014121Y010677D01*
X014083Y010644D01*
X014043Y010614D01*
X014000Y010587D01*
X013955Y010564D01*
X013909Y010544D01*
X013861Y010527D01*
X013813Y010515D01*
X013763Y010506D01*
X013713Y010501D01*
X013662Y010500D01*
X013612Y010503D01*
X013562Y010510D01*
X013513Y010521D01*
X013465Y010535D01*
X013418Y010553D01*
X013372Y010575D01*
X013328Y010600D01*
X013287Y010629D01*
X013248Y010660D01*
X013211Y010695D01*
X013177Y010732D01*
X013146Y010772D01*
X013118Y010814D01*
X013094Y010858D01*
X013073Y010904D01*
X013056Y010952D01*
X013043Y011000D01*
X013033Y011050D01*
X013027Y011100D01*
X013025Y011150D01*
D16*
X003434Y004386D03*
X003434Y003914D03*
X003434Y003386D03*
X003434Y002914D03*
D17*
X003434Y003150D03*
X003434Y004150D03*
D18*
X008191Y004149D02*
X008191Y002351D01*
X008355Y002770D02*
X008357Y002796D01*
X008363Y002822D01*
X008372Y002846D01*
X008385Y002869D01*
X008401Y002890D01*
X008420Y002908D01*
X008441Y002924D01*
X008465Y002936D01*
X008489Y002944D01*
X008515Y002949D01*
X008542Y002950D01*
X008568Y002947D01*
X008593Y002940D01*
X008617Y002930D01*
X008640Y002916D01*
X008660Y002900D01*
X008677Y002880D01*
X008692Y002858D01*
X008703Y002834D01*
X008711Y002809D01*
X008715Y002783D01*
X008715Y002757D01*
X008711Y002731D01*
X008703Y002706D01*
X008692Y002682D01*
X008677Y002660D01*
X008660Y002640D01*
X008640Y002624D01*
X008617Y002610D01*
X008593Y002600D01*
X008568Y002593D01*
X008542Y002590D01*
X008515Y002591D01*
X008489Y002596D01*
X008465Y002604D01*
X008441Y002616D01*
X008420Y002632D01*
X008401Y002650D01*
X008385Y002671D01*
X008372Y002694D01*
X008363Y002718D01*
X008357Y002744D01*
X008355Y002770D01*
X010159Y002351D02*
X010159Y004149D01*
X010856Y002710D02*
X010856Y002673D01*
X010856Y002710D02*
X011494Y002710D01*
X011494Y002673D01*
X011494Y002356D02*
X011494Y002319D01*
X011494Y001981D02*
X011494Y001944D01*
X011494Y001627D02*
X011494Y001590D01*
X010856Y001590D01*
X010856Y001627D01*
X010856Y001944D02*
X010856Y002356D01*
D19*
X004261Y001722D02*
X004261Y001578D01*
X004071Y001559D01*
X004050Y001495D01*
X004019Y001435D01*
X004140Y001286D01*
X004039Y001185D01*
X003890Y001306D01*
X003830Y001275D01*
X003746Y001479D01*
X003784Y001501D01*
X003816Y001531D01*
X004062Y001531D01*
X004039Y001474D02*
X003748Y001474D01*
X003772Y001416D02*
X004035Y001416D01*
X004081Y001359D02*
X003796Y001359D01*
X003820Y001301D02*
X003881Y001301D01*
X003896Y001301D02*
X004128Y001301D01*
X004097Y001244D02*
X003966Y001244D01*
X004037Y001186D02*
X004040Y001186D01*
X003816Y001531D02*
X003840Y001568D01*
X003855Y001610D01*
X003859Y001654D01*
X003853Y001698D01*
X003837Y001739D01*
X003811Y001775D01*
X003777Y001803D01*
X003738Y001823D01*
X003695Y001833D01*
X003651Y001833D01*
X003608Y001822D01*
X003569Y001801D01*
X003536Y001772D01*
X003511Y001735D01*
X003496Y001694D01*
X003490Y001650D01*
X003496Y001607D01*
X003511Y001566D01*
X003535Y001530D01*
X003567Y001501D01*
X003604Y001479D01*
X003520Y001275D01*
X003460Y001306D01*
X003311Y001185D01*
X003210Y001286D01*
X003331Y001435D01*
X003300Y001495D01*
X003279Y001559D01*
X003089Y001578D01*
X003089Y001722D01*
X003279Y001741D01*
X003300Y001805D01*
X003331Y001865D01*
X003210Y002014D01*
X003311Y002115D01*
X003460Y001994D01*
X003520Y002025D01*
X003584Y002046D01*
X003603Y002236D01*
X003747Y002236D01*
X003766Y002046D01*
X003830Y002025D01*
X003890Y001994D01*
X004039Y002115D01*
X004140Y002014D01*
X004019Y001865D01*
X004050Y001805D01*
X004071Y001741D01*
X004261Y001722D01*
X004261Y001704D02*
X003851Y001704D01*
X003859Y001646D02*
X004261Y001646D01*
X004261Y001589D02*
X003848Y001589D01*
X003820Y001762D02*
X004064Y001762D01*
X004043Y001819D02*
X003746Y001819D01*
X003603Y001819D02*
X003307Y001819D01*
X003321Y001877D02*
X004029Y001877D01*
X004076Y001934D02*
X003274Y001934D01*
X003227Y001992D02*
X004123Y001992D01*
X004105Y002049D02*
X003958Y002049D01*
X004028Y002107D02*
X004047Y002107D01*
X003760Y002107D02*
X003590Y002107D01*
X003596Y002164D02*
X003754Y002164D01*
X003748Y002222D02*
X003602Y002222D01*
X003584Y002049D02*
X003766Y002049D01*
X003392Y002049D02*
X003245Y002049D01*
X003303Y002107D02*
X003322Y002107D01*
X003286Y001762D02*
X003529Y001762D01*
X003500Y001704D02*
X003089Y001704D01*
X003089Y001646D02*
X003491Y001646D01*
X003502Y001589D02*
X003089Y001589D01*
X003288Y001531D02*
X003534Y001531D01*
X003602Y001474D02*
X003311Y001474D01*
X003315Y001416D02*
X003578Y001416D01*
X003554Y001359D02*
X003269Y001359D01*
X003222Y001301D02*
X003454Y001301D01*
X003469Y001301D02*
X003530Y001301D01*
X003384Y001244D02*
X003253Y001244D01*
X003310Y001186D02*
X003313Y001186D01*
M02*
