G75*
G70*
%OFA0B0*%
%FSLAX24Y24*%
%IPPOS*%
%LPD*%
%AMOC8*
5,1,8,0,0,1.08239X$1,22.5*
%
%ADD10R,0.0440X0.0780*%
%ADD11C,0.1130*%
%ADD12C,0.0680*%
%ADD13C,0.1380*%
%ADD14R,0.0513X0.0474*%
%ADD15R,0.0552X0.0552*%
%ADD16R,0.0474X0.0513*%
%ADD17R,0.0218X0.0710*%
%ADD18R,0.0552X0.0297*%
%ADD19R,0.0671X0.0848*%
D10*
X006025Y002650D03*
X006525Y002650D03*
X007025Y002650D03*
X007525Y002650D03*
X007525Y004850D03*
X007025Y004850D03*
X006525Y004850D03*
X006025Y004850D03*
D11*
X007025Y006525D02*
X007025Y007575D01*
X009525Y007575D02*
X009525Y006525D01*
X003075Y006430D02*
X002025Y006430D01*
X002025Y009130D02*
X003075Y009130D01*
D12*
X012425Y008900D03*
X012425Y007900D03*
X012425Y006900D03*
X012425Y005900D03*
X012425Y004900D03*
X012425Y003900D03*
D13*
X001675Y001650D03*
X001675Y011150D03*
X013675Y011150D03*
X013675Y001650D03*
D14*
X010575Y003515D03*
X010575Y004185D03*
X005210Y005350D03*
X004540Y005350D03*
D15*
X003788Y004150D03*
X002962Y004150D03*
X002962Y003150D03*
X003788Y003150D03*
D16*
X004540Y003150D03*
X005210Y003150D03*
X005210Y004150D03*
X004540Y004150D03*
D17*
X008407Y004352D03*
X008663Y004352D03*
X008919Y004352D03*
X009175Y004352D03*
X009431Y004352D03*
X009687Y004352D03*
X009943Y004352D03*
X009943Y002148D03*
X009687Y002148D03*
X009431Y002148D03*
X009175Y002148D03*
X008919Y002148D03*
X008663Y002148D03*
X008407Y002148D03*
D18*
X010663Y001776D03*
X010663Y002524D03*
X011687Y002524D03*
X011687Y002150D03*
X011687Y001776D03*
D19*
X011375Y003309D03*
X011375Y004391D03*
M02*
