G75*
G70*
%OFA0B0*%
%FSLAX24Y24*%
%IPPOS*%
%LPD*%
%AMOC8*
5,1,8,0,0,1.08239X$1,22.5*
%
%ADD10R,0.0360X0.0700*%
%ADD11C,0.1050*%
%ADD12C,0.0600*%
%ADD13R,0.0433X0.0394*%
%ADD14R,0.0472X0.0472*%
%ADD15R,0.0394X0.0433*%
%ADD16R,0.0138X0.0630*%
%ADD17R,0.0472X0.0217*%
%ADD18R,0.0591X0.0768*%
%ADD19C,0.0100*%
%ADD20C,0.0200*%
%ADD21C,0.0320*%
D10*
X006025Y002650D03*
X006525Y002650D03*
X007025Y002650D03*
X007525Y002650D03*
X007525Y004850D03*
X007025Y004850D03*
X006525Y004850D03*
X006025Y004850D03*
D11*
X007025Y006525D02*
X007025Y007575D01*
X009525Y007575D02*
X009525Y006525D01*
X003075Y006430D02*
X002025Y006430D01*
X002025Y009130D02*
X003075Y009130D01*
D12*
X012425Y008900D03*
X012425Y007900D03*
X012425Y006900D03*
X012425Y005900D03*
X012425Y004900D03*
X012425Y003900D03*
D13*
X010575Y004185D03*
X010575Y003515D03*
X005210Y005350D03*
X004540Y005350D03*
D14*
X003788Y004150D03*
X002962Y004150D03*
X002962Y003150D03*
X003788Y003150D03*
D15*
X004540Y003150D03*
X005210Y003150D03*
X005210Y004150D03*
X004540Y004150D03*
D16*
X008407Y004352D03*
X008663Y004352D03*
X008919Y004352D03*
X009175Y004352D03*
X009431Y004352D03*
X009687Y004352D03*
X009943Y004352D03*
X009943Y002148D03*
X009687Y002148D03*
X009431Y002148D03*
X009175Y002148D03*
X008919Y002148D03*
X008663Y002148D03*
X008407Y002148D03*
D17*
X010663Y001776D03*
X010663Y002524D03*
X011687Y002524D03*
X011687Y002150D03*
X011687Y001776D03*
D18*
X011375Y003309D03*
X011375Y004391D03*
D19*
X002350Y000770D02*
X002143Y000650D01*
X013207Y000650D01*
X002143Y000650D01*
X002175Y000650D02*
X002175Y000669D01*
X002350Y000770D02*
X002555Y000975D01*
X002700Y001225D01*
X002775Y001505D01*
X002775Y001795D01*
X002700Y002075D01*
X002555Y002325D01*
X002350Y002530D01*
X002100Y002675D01*
X001820Y002750D01*
X001530Y002750D01*
X001250Y002675D01*
X001000Y002530D01*
X000795Y002325D01*
X000675Y002118D01*
X000675Y010682D01*
X000675Y002118D01*
X000675Y002150D02*
X000694Y002150D01*
X000675Y002400D02*
X000869Y002400D01*
X000925Y002456D02*
X000925Y010344D01*
X000869Y010400D02*
X000675Y010400D01*
X000795Y010475D02*
X001000Y010270D01*
X001250Y010125D01*
X001530Y010050D01*
X001820Y010050D01*
X002100Y010125D01*
X002350Y010270D01*
X002555Y010475D01*
X002700Y010725D01*
X002775Y011005D01*
X002775Y011295D01*
X002700Y011575D01*
X002555Y011825D01*
X002350Y012030D01*
X002143Y012150D01*
X013207Y012150D01*
X013000Y012030D01*
X012795Y011825D01*
X012650Y011575D01*
X012575Y011295D01*
X012575Y011005D01*
X012650Y010725D01*
X012795Y010475D01*
X013000Y010270D01*
X013250Y010125D01*
X013530Y010050D01*
X013820Y010050D01*
X014100Y010125D01*
X014350Y010270D01*
X014555Y010475D01*
X014675Y010682D01*
X014675Y002118D01*
X014555Y002325D01*
X014350Y002530D01*
X014100Y002675D01*
X013820Y002750D01*
X013530Y002750D01*
X013250Y002675D01*
X013000Y002530D01*
X012795Y002325D01*
X012650Y002075D01*
X012575Y001795D01*
X012575Y001505D01*
X012650Y001225D01*
X012795Y000975D01*
X013000Y000770D01*
X013207Y000650D01*
X013175Y000650D02*
X013175Y000669D01*
X012925Y000650D02*
X012925Y000844D01*
X012869Y000900D02*
X010771Y000900D01*
X010747Y000890D02*
X010879Y000945D01*
X010980Y001046D01*
X011035Y001178D01*
X011035Y001322D01*
X010980Y001454D01*
X010966Y001468D01*
X010982Y001468D01*
X011099Y001585D01*
X011099Y001967D01*
X011073Y001994D01*
X011217Y002138D01*
X011287Y002208D01*
X011301Y002241D01*
X011301Y002154D01*
X011683Y002154D01*
X011683Y002146D01*
X011301Y002146D01*
X011301Y002022D01*
X011302Y002018D01*
X011251Y001967D01*
X011251Y001585D01*
X011368Y001468D01*
X012006Y001468D01*
X012074Y001535D01*
X012143Y001564D01*
X012317Y001738D01*
X012387Y001808D01*
X012425Y001900D01*
X012603Y001900D01*
X012425Y001900D02*
X012425Y002500D01*
X012387Y002592D01*
X012317Y002662D01*
X012243Y002736D01*
X012151Y002774D01*
X012125Y002774D01*
X012125Y003564D01*
X012132Y003557D01*
X012189Y003515D01*
X012252Y003483D01*
X012320Y003461D01*
X012375Y003452D01*
X012375Y003850D01*
X012475Y003850D01*
X012475Y003950D01*
X012375Y003950D01*
X012375Y004296D01*
X012479Y004400D01*
X012524Y004400D01*
X014675Y004400D01*
X014675Y004150D02*
X012800Y004150D01*
X012810Y004136D02*
X012768Y004193D01*
X012718Y004243D01*
X012661Y004285D01*
X012598Y004317D01*
X012530Y004339D01*
X012475Y004348D01*
X012475Y003950D01*
X012873Y003950D01*
X012864Y004005D01*
X012842Y004073D01*
X012810Y004136D01*
X012675Y004275D02*
X012675Y004462D01*
X012708Y004476D02*
X012849Y004617D01*
X012925Y004801D01*
X012925Y004999D01*
X012849Y005183D01*
X012708Y005324D01*
X012524Y005400D01*
X014675Y005400D01*
X014675Y005150D02*
X012863Y005150D01*
X012675Y005338D02*
X012675Y005462D01*
X012708Y005476D02*
X012849Y005617D01*
X012925Y005801D01*
X012925Y005999D01*
X012849Y006183D01*
X012708Y006324D01*
X012524Y006400D01*
X014675Y006400D01*
X014675Y006650D02*
X012863Y006650D01*
X012849Y006617D02*
X012925Y006801D01*
X012925Y006999D01*
X012849Y007183D01*
X012708Y007324D01*
X012524Y007400D01*
X014675Y007400D01*
X014675Y007150D02*
X012863Y007150D01*
X012925Y006900D02*
X014675Y006900D01*
X014675Y006150D02*
X012863Y006150D01*
X012675Y006338D02*
X012675Y006462D01*
X012708Y006476D02*
X012849Y006617D01*
X012708Y006476D02*
X012524Y006400D01*
X012326Y006400D01*
X012279Y006400D01*
X012292Y006414D02*
X012326Y006400D01*
X012245Y006367D01*
X012292Y006414D01*
X012326Y006400D02*
X012524Y006400D01*
X012425Y006400D02*
X012425Y006400D01*
X012425Y006900D02*
X010775Y005250D01*
X009375Y005250D01*
X009175Y005050D01*
X009175Y004352D01*
X008919Y004352D02*
X008919Y005094D01*
X009275Y005450D01*
X009875Y005450D01*
X010875Y006450D01*
X012325Y007900D01*
X012425Y007900D01*
X012863Y007650D02*
X014675Y007650D01*
X014675Y007900D02*
X012925Y007900D01*
X012925Y007801D02*
X012925Y007999D01*
X012849Y008183D01*
X012708Y008324D01*
X012524Y008400D01*
X014675Y008400D01*
X014675Y008150D02*
X012863Y008150D01*
X012675Y008338D02*
X012675Y008462D01*
X012708Y008476D02*
X012849Y008617D01*
X012925Y008801D01*
X012925Y008999D01*
X012849Y009183D01*
X012708Y009324D01*
X012524Y009400D01*
X012326Y009400D01*
X012142Y009324D01*
X012001Y009183D01*
X011925Y008999D01*
X011925Y012150D01*
X011675Y012150D02*
X011675Y008504D01*
X011571Y008400D02*
X000675Y008400D01*
X000675Y008150D02*
X006575Y008150D01*
X006614Y008190D02*
X006410Y007986D01*
X006300Y007719D01*
X006300Y006381D01*
X006410Y006114D01*
X006463Y006062D01*
X006321Y005920D01*
X006275Y005810D01*
X006275Y005400D01*
X005829Y005400D01*
X005737Y005492D01*
X005667Y005562D01*
X005626Y005579D01*
X005626Y005630D01*
X005509Y005747D01*
X004910Y005747D01*
X004837Y005674D01*
X004815Y005687D01*
X004777Y005697D01*
X004589Y005697D01*
X004589Y005398D01*
X004492Y005398D01*
X004492Y005302D01*
X004174Y005302D01*
X004174Y005200D01*
X002625Y005200D01*
X002533Y005162D01*
X002333Y004962D01*
X002263Y004892D01*
X002225Y004800D01*
X002225Y003587D01*
X002263Y003495D01*
X002333Y003425D01*
X002525Y003233D01*
X002525Y002831D01*
X002643Y002714D01*
X003281Y002714D01*
X003375Y002808D01*
X003469Y002714D01*
X004107Y002714D01*
X004194Y002800D01*
X004261Y002733D01*
X004820Y002733D01*
X004910Y002824D01*
X004921Y002813D01*
X004955Y002794D01*
X004993Y002783D01*
X005161Y002783D01*
X005161Y003102D01*
X005258Y003102D01*
X005258Y003198D01*
X005556Y003198D01*
X005556Y003386D01*
X005546Y003424D01*
X005527Y003459D01*
X005499Y003487D01*
X005464Y003506D01*
X005426Y003517D01*
X005258Y003517D01*
X005258Y003198D01*
X005161Y003198D01*
X005161Y003517D01*
X004993Y003517D01*
X004955Y003506D01*
X004921Y003487D01*
X004910Y003476D01*
X004820Y003567D01*
X004261Y003567D01*
X004194Y003500D01*
X004107Y003586D01*
X003469Y003586D01*
X003375Y003492D01*
X003281Y003586D01*
X002879Y003586D01*
X002751Y003714D01*
X003281Y003714D01*
X003375Y003808D01*
X003469Y003714D01*
X004107Y003714D01*
X004194Y003800D01*
X004261Y003733D01*
X004820Y003733D01*
X004910Y003824D01*
X004921Y003813D01*
X004955Y003794D01*
X004993Y003783D01*
X005161Y003783D01*
X005161Y004102D01*
X005258Y004102D01*
X005258Y004198D01*
X005556Y004198D01*
X005556Y004386D01*
X005546Y004424D01*
X005527Y004459D01*
X005499Y004487D01*
X005464Y004506D01*
X005426Y004517D01*
X005258Y004517D01*
X005258Y004198D01*
X005161Y004198D01*
X005161Y004517D01*
X004993Y004517D01*
X004955Y004506D01*
X004921Y004487D01*
X004910Y004476D01*
X004820Y004567D01*
X004261Y004567D01*
X004194Y004500D01*
X004107Y004586D01*
X003469Y004586D01*
X003375Y004492D01*
X003321Y004546D01*
X003335Y004578D01*
X003335Y004700D01*
X005125Y004700D01*
X005217Y004738D01*
X005287Y004808D01*
X005287Y004808D01*
X005351Y004873D01*
X005351Y004873D01*
X005422Y004943D01*
X005426Y004953D01*
X005509Y004953D01*
X005539Y004983D01*
X005645Y004876D01*
X005645Y004417D01*
X005752Y004310D01*
X005715Y004222D01*
X005715Y004078D01*
X005770Y003946D01*
X005871Y003845D01*
X006003Y003790D01*
X006147Y003790D01*
X006279Y003845D01*
X006380Y003946D01*
X006435Y004078D01*
X006435Y004222D01*
X006403Y004300D01*
X007288Y004300D01*
X007338Y004350D01*
X007485Y004350D01*
X007485Y004810D01*
X007565Y004810D01*
X007565Y004890D01*
X007485Y004890D01*
X007485Y005350D01*
X007399Y005350D01*
X008799Y006750D01*
X008800Y006750D01*
X008800Y006381D01*
X008910Y006114D01*
X009114Y005910D01*
X009139Y005900D01*
X007949Y005900D01*
X007925Y005876D02*
X007925Y001800D01*
X007675Y001800D02*
X007675Y002100D01*
X007788Y002100D02*
X007905Y002217D01*
X007905Y003083D01*
X007788Y003200D01*
X005762Y003200D01*
X005645Y003083D01*
X005645Y002217D01*
X005762Y002100D01*
X005775Y002100D01*
X005775Y001750D01*
X005813Y001658D01*
X006463Y001008D01*
X006533Y000938D01*
X006625Y000900D01*
X002481Y000900D01*
X002425Y000844D02*
X002425Y000650D01*
X002675Y000650D02*
X002675Y001182D01*
X002656Y001150D02*
X006321Y001150D01*
X006425Y001046D02*
X006425Y000650D01*
X006175Y000650D02*
X006175Y001296D01*
X006071Y001400D02*
X002747Y001400D01*
X002775Y001650D02*
X005821Y001650D01*
X005925Y001546D02*
X005925Y000650D01*
X005675Y000650D02*
X005675Y002187D01*
X005712Y002150D02*
X002656Y002150D01*
X002675Y002118D02*
X002675Y002714D01*
X002525Y002900D02*
X000675Y002900D01*
X000675Y002650D02*
X001207Y002650D01*
X001175Y002631D02*
X001175Y010169D01*
X001207Y010150D02*
X000675Y010150D01*
X000675Y009900D02*
X014675Y009900D01*
X014675Y009650D02*
X003506Y009650D01*
X003521Y009639D02*
X003451Y009692D01*
X003374Y009737D01*
X003292Y009771D01*
X003207Y009793D01*
X003119Y009805D01*
X002075Y009805D01*
X002075Y009180D01*
X001975Y009180D01*
X001975Y009804D01*
X001893Y009793D01*
X001808Y009771D01*
X001726Y009737D01*
X001649Y009692D01*
X001579Y009639D01*
X001516Y009576D01*
X001463Y009506D01*
X001418Y009429D01*
X001384Y009347D01*
X001362Y009262D01*
X001351Y009180D01*
X001975Y009180D01*
X001975Y009080D01*
X002075Y009080D01*
X002075Y009180D01*
X003749Y009180D01*
X003738Y009262D01*
X003716Y009347D01*
X003682Y009429D01*
X003637Y009506D01*
X003584Y009576D01*
X003521Y009639D01*
X003425Y009707D02*
X003425Y012150D01*
X003675Y012150D02*
X003675Y009441D01*
X003694Y009400D02*
X014675Y009400D01*
X014675Y009150D02*
X012863Y009150D01*
X012675Y009338D02*
X012675Y010682D01*
X012694Y010650D02*
X002656Y010650D01*
X002675Y010682D02*
X002675Y009805D01*
X002425Y009805D02*
X002425Y010344D01*
X002481Y010400D02*
X012869Y010400D01*
X012925Y010344D02*
X012925Y002456D01*
X012869Y002400D02*
X012425Y002400D01*
X012425Y002150D02*
X012694Y002150D01*
X012675Y002118D02*
X012675Y003525D01*
X012661Y003515D02*
X012718Y003557D01*
X012768Y003607D01*
X012810Y003664D01*
X012842Y003727D01*
X012864Y003795D01*
X012873Y003850D01*
X012475Y003850D01*
X012475Y003452D01*
X012530Y003461D01*
X012598Y003483D01*
X012661Y003515D01*
X012800Y003650D02*
X014675Y003650D01*
X014675Y003400D02*
X012125Y003400D01*
X012175Y003525D02*
X012175Y002764D01*
X012125Y002900D02*
X014675Y002900D01*
X014675Y002650D02*
X014143Y002650D01*
X014175Y002631D02*
X014175Y010169D01*
X014143Y010150D02*
X014675Y010150D01*
X014425Y010344D02*
X014425Y002456D01*
X014481Y002400D02*
X014675Y002400D01*
X014656Y002150D02*
X014675Y002150D01*
X013925Y002722D02*
X013925Y010078D01*
X013675Y010050D02*
X013675Y002750D01*
X013425Y002722D02*
X013425Y010078D01*
X013207Y010150D02*
X002143Y010150D01*
X002175Y010169D02*
X002175Y009805D01*
X002075Y009650D02*
X001975Y009650D01*
X001925Y009798D02*
X001925Y010078D01*
X001675Y010050D02*
X001675Y009707D01*
X001594Y009650D02*
X000675Y009650D01*
X000675Y009400D02*
X001406Y009400D01*
X001425Y009441D02*
X001425Y010078D01*
X000795Y010475D02*
X000675Y010682D01*
X000675Y010650D02*
X000694Y010650D01*
X001975Y009400D02*
X002075Y009400D01*
X002175Y009180D02*
X002175Y009080D01*
X002075Y009080D02*
X003749Y009080D01*
X003738Y008998D01*
X003716Y008913D01*
X003682Y008831D01*
X003637Y008754D01*
X003584Y008684D01*
X003521Y008621D01*
X003451Y008568D01*
X003374Y008523D01*
X003292Y008489D01*
X003207Y008467D01*
X003119Y008455D01*
X002075Y008455D01*
X002075Y009080D01*
X002075Y009150D02*
X011987Y009150D01*
X011925Y008999D02*
X011925Y008801D01*
X011925Y008754D01*
X011939Y008767D02*
X011463Y008292D01*
X011425Y008200D01*
X011425Y012150D01*
X011175Y012150D02*
X011175Y007404D01*
X011171Y007400D02*
X010250Y007400D01*
X010250Y007150D02*
X010921Y007150D01*
X010925Y007154D02*
X010925Y012150D01*
X010675Y012150D02*
X010675Y006904D01*
X010671Y006900D02*
X010250Y006900D01*
X010250Y006650D02*
X010421Y006650D01*
X010425Y006654D02*
X010425Y012150D01*
X010175Y012150D02*
X010175Y007900D01*
X011425Y007900D01*
X011425Y007654D02*
X010250Y006479D01*
X010250Y007719D01*
X010140Y007986D01*
X009936Y008190D01*
X009669Y008300D01*
X009381Y008300D01*
X009114Y008190D01*
X008910Y007986D01*
X008800Y007719D01*
X008800Y007350D01*
X008615Y007350D01*
X008505Y007304D01*
X008421Y007220D01*
X007750Y006549D01*
X007750Y007719D01*
X007640Y007986D01*
X007436Y008190D01*
X007169Y008300D01*
X006881Y008300D01*
X006614Y008190D01*
X006675Y008215D02*
X006675Y012150D01*
X006425Y012150D02*
X006425Y008000D01*
X006375Y007900D02*
X000675Y007900D01*
X000675Y007650D02*
X006300Y007650D01*
X006300Y007400D02*
X000675Y007400D01*
X000675Y007150D02*
X006300Y007150D01*
X006300Y006900D02*
X003560Y006900D01*
X003584Y006876D02*
X003521Y006939D01*
X003451Y006992D01*
X003374Y007037D01*
X003292Y007071D01*
X003207Y007093D01*
X003119Y007105D01*
X002075Y007105D01*
X002075Y006480D01*
X001975Y006480D01*
X001975Y007104D01*
X001893Y007093D01*
X001808Y007071D01*
X001726Y007037D01*
X001649Y006992D01*
X001579Y006939D01*
X001516Y006876D01*
X001463Y006806D01*
X001418Y006729D01*
X001384Y006647D01*
X001362Y006562D01*
X001351Y006480D01*
X001975Y006480D01*
X001975Y006380D01*
X002075Y006380D01*
X002075Y006480D01*
X003749Y006480D01*
X003738Y006562D01*
X003716Y006647D01*
X003682Y006729D01*
X003637Y006806D01*
X003584Y006876D01*
X003675Y006741D02*
X003675Y008819D01*
X003710Y008900D02*
X011925Y008900D01*
X011925Y008801D02*
X011939Y008767D01*
X011821Y008650D02*
X003550Y008650D01*
X003425Y008553D02*
X003425Y007007D01*
X003175Y007098D02*
X003175Y008462D01*
X002925Y008455D02*
X002925Y007105D01*
X002675Y007105D02*
X002675Y008455D01*
X002425Y008455D02*
X002425Y007105D01*
X002175Y007105D02*
X002175Y008455D01*
X002075Y008650D02*
X001975Y008650D01*
X001925Y008462D02*
X001925Y007098D01*
X001975Y006900D02*
X002075Y006900D01*
X002075Y006650D02*
X001975Y006650D01*
X001925Y006480D02*
X001925Y006380D01*
X001975Y006380D02*
X001351Y006380D01*
X001362Y006298D01*
X001384Y006213D01*
X001418Y006131D01*
X001463Y006054D01*
X001516Y005984D01*
X001579Y005921D01*
X001649Y005868D01*
X001726Y005823D01*
X001808Y005789D01*
X001893Y005767D01*
X001975Y005756D01*
X001975Y006380D01*
X001975Y006400D02*
X000675Y006400D01*
X000675Y006650D02*
X001386Y006650D01*
X001425Y006741D02*
X001425Y008819D01*
X001418Y008831D02*
X001463Y008754D01*
X001516Y008684D01*
X001579Y008621D01*
X001649Y008568D01*
X001726Y008523D01*
X001808Y008489D01*
X001893Y008467D01*
X001975Y008456D01*
X001975Y009080D01*
X001351Y009080D01*
X001362Y008998D01*
X001384Y008913D01*
X001418Y008831D01*
X001390Y008900D02*
X000675Y008900D01*
X000675Y008650D02*
X001550Y008650D01*
X001675Y008553D02*
X001675Y007007D01*
X001540Y006900D02*
X000675Y006900D01*
X000675Y006150D02*
X001410Y006150D01*
X001425Y006119D02*
X001425Y002722D01*
X001675Y002750D02*
X001675Y005853D01*
X001607Y005900D02*
X000675Y005900D01*
X000675Y005650D02*
X004215Y005650D01*
X004204Y005639D02*
X004184Y005605D01*
X004174Y005567D01*
X004174Y005398D01*
X004492Y005398D01*
X004492Y005697D01*
X004304Y005697D01*
X004266Y005687D01*
X004232Y005667D01*
X004204Y005639D01*
X004175Y005571D02*
X004175Y012150D01*
X004425Y012150D02*
X004425Y005697D01*
X004492Y005650D02*
X004589Y005650D01*
X004675Y005697D02*
X004675Y012150D01*
X004925Y012150D02*
X004925Y005747D01*
X005175Y005747D02*
X005175Y012150D01*
X005425Y012150D02*
X005425Y005747D01*
X005606Y005650D02*
X006275Y005650D01*
X006275Y005400D02*
X005829Y005400D01*
X005925Y005400D02*
X005925Y012150D01*
X005675Y012150D02*
X005675Y005554D01*
X005525Y005350D02*
X005210Y005350D01*
X005210Y005085D01*
X005075Y004950D01*
X002675Y004950D01*
X002475Y004750D01*
X002475Y003637D01*
X002962Y003150D01*
X002525Y003150D02*
X000675Y003150D01*
X000675Y003400D02*
X002358Y003400D01*
X002425Y003333D02*
X002425Y002456D01*
X002481Y002400D02*
X005645Y002400D01*
X005645Y002650D02*
X002143Y002650D01*
X002175Y002631D02*
X002175Y005755D01*
X002075Y005755D02*
X003119Y005755D01*
X003207Y005767D01*
X003292Y005789D01*
X003374Y005823D01*
X003451Y005868D01*
X003521Y005921D01*
X003584Y005984D01*
X003637Y006054D01*
X003682Y006131D01*
X003716Y006213D01*
X003738Y006298D01*
X003749Y006380D01*
X002075Y006380D01*
X002075Y005755D01*
X001925Y005762D02*
X001925Y002722D01*
X002225Y003650D02*
X000675Y003650D01*
X000675Y003900D02*
X002225Y003900D01*
X002225Y004150D02*
X000675Y004150D01*
X000675Y004400D02*
X002225Y004400D01*
X002225Y004650D02*
X000675Y004650D01*
X000675Y004900D02*
X002271Y004900D01*
X002333Y004962D02*
X002333Y004962D01*
X002425Y005054D02*
X002425Y005755D01*
X002675Y005755D02*
X002675Y005200D01*
X002521Y005150D02*
X000675Y005150D01*
X000675Y005400D02*
X004174Y005400D01*
X004175Y005398D02*
X004175Y005302D01*
X004425Y005302D02*
X004425Y005398D01*
X004492Y005400D02*
X004589Y005400D01*
X003925Y005200D02*
X003925Y012150D01*
X003175Y012150D02*
X003175Y009798D01*
X002925Y009805D02*
X002925Y012150D01*
X002675Y012150D02*
X002675Y011618D01*
X002656Y011650D02*
X012694Y011650D01*
X012675Y011618D02*
X012675Y012150D01*
X012425Y012150D02*
X012425Y009400D01*
X012175Y009338D02*
X012175Y012150D01*
X012869Y011900D02*
X002481Y011900D01*
X002425Y011956D02*
X002425Y012150D01*
X002175Y012131D02*
X002175Y012150D01*
X002747Y011400D02*
X012603Y011400D01*
X012575Y011150D02*
X002775Y011150D01*
X002747Y010900D02*
X012603Y010900D01*
X013175Y010169D02*
X013175Y002631D01*
X013207Y002650D02*
X012329Y002650D01*
X012175Y002450D02*
X012175Y001950D01*
X012001Y001776D01*
X011687Y001776D01*
X011675Y001468D02*
X011675Y000650D01*
X011925Y000650D02*
X011925Y001468D01*
X012175Y001596D02*
X012175Y000650D01*
X012425Y000650D02*
X012425Y003850D01*
X012475Y003900D02*
X014675Y003900D01*
X014675Y003150D02*
X012125Y003150D01*
X011875Y003650D02*
X011875Y003850D01*
X011687Y003850D01*
X008375Y003850D01*
X008375Y004320D01*
X008407Y004352D01*
X008138Y004402D02*
X008125Y004370D01*
X008125Y003800D01*
X008163Y003708D01*
X008233Y003638D01*
X008325Y003600D01*
X010158Y003600D01*
X010158Y003236D01*
X010276Y003119D01*
X010874Y003119D01*
X010880Y003124D01*
X010880Y002842D01*
X010889Y002832D01*
X010344Y002832D01*
X010227Y002715D01*
X010227Y002333D01*
X010344Y002216D01*
X010587Y002216D01*
X010522Y002150D01*
X010456Y002084D01*
X010344Y002084D01*
X010227Y001967D01*
X010227Y001585D01*
X010344Y001468D01*
X010384Y001468D01*
X010370Y001454D01*
X010315Y001322D01*
X010315Y001178D01*
X010370Y001046D01*
X010471Y000945D01*
X010603Y000890D01*
X010747Y000890D01*
X010675Y000890D02*
X010675Y000650D01*
X010425Y000650D02*
X010425Y000991D01*
X010579Y000900D02*
X008725Y000900D01*
X008817Y000938D01*
X009317Y001438D01*
X009387Y001508D01*
X009425Y001600D01*
X009425Y001633D01*
X009425Y000650D01*
X009175Y000650D02*
X009175Y001296D01*
X009279Y001400D02*
X010347Y001400D01*
X010327Y001150D02*
X009029Y001150D01*
X008925Y001046D02*
X008925Y000650D01*
X008675Y000650D02*
X008675Y000900D01*
X008725Y000900D02*
X006625Y000900D01*
X006675Y000900D02*
X006675Y000650D01*
X006925Y000650D02*
X006925Y000900D01*
X007175Y000900D02*
X007175Y000650D01*
X007425Y000650D02*
X007425Y000900D01*
X007675Y000900D02*
X007675Y000650D01*
X007925Y000650D02*
X007925Y000900D01*
X008175Y000900D02*
X008175Y000650D01*
X008425Y000650D02*
X008425Y000900D01*
X008675Y001150D02*
X009175Y001650D01*
X009175Y002148D01*
X008919Y002148D02*
X008919Y001694D01*
X008575Y001350D01*
X006975Y001350D01*
X006525Y001800D01*
X006525Y002650D01*
X006025Y002650D02*
X006025Y001800D01*
X006675Y001150D01*
X008675Y001150D01*
X008475Y001550D02*
X007375Y001550D01*
X007075Y001850D01*
X007075Y002600D01*
X007025Y002650D01*
X007325Y002100D02*
X007788Y002100D01*
X007838Y002150D02*
X008125Y002150D01*
X008125Y002130D02*
X008138Y002098D01*
X008138Y001800D01*
X007479Y001800D01*
X007325Y001954D01*
X007325Y002100D01*
X007425Y002100D02*
X007425Y001854D01*
X007379Y001900D02*
X008138Y001900D01*
X008125Y002130D02*
X008125Y002591D01*
X008070Y002646D01*
X008015Y002778D01*
X008015Y002922D01*
X008070Y003054D01*
X008171Y003155D01*
X008303Y003210D01*
X008447Y003210D01*
X008579Y003155D01*
X008680Y003054D01*
X008735Y002922D01*
X008735Y002778D01*
X008687Y002663D01*
X009839Y002663D01*
X009889Y002613D01*
X009943Y002613D01*
X009943Y002558D01*
X009943Y002558D01*
X009943Y002613D01*
X010031Y002613D01*
X010070Y002602D01*
X010104Y002583D01*
X010132Y002555D01*
X010151Y002520D01*
X010162Y002482D01*
X010162Y002148D01*
X009956Y002148D01*
X009956Y002148D01*
X010162Y002148D01*
X010162Y001813D01*
X010151Y001775D01*
X010132Y001741D01*
X010104Y001713D01*
X010070Y001693D01*
X010031Y001683D01*
X009943Y001683D01*
X009943Y001737D01*
X009943Y001737D01*
X009943Y001683D01*
X009889Y001683D01*
X009839Y001633D01*
X009535Y001633D01*
X009425Y001633D01*
X009675Y001633D02*
X009675Y000650D01*
X009925Y000650D02*
X009925Y001683D01*
X009856Y001650D02*
X010227Y001650D01*
X010227Y001900D02*
X010162Y001900D01*
X010162Y002150D02*
X010521Y002150D01*
X010425Y002084D02*
X010425Y002216D01*
X010227Y002400D02*
X010162Y002400D01*
X010227Y002650D02*
X009851Y002650D01*
X009925Y002613D02*
X009925Y003600D01*
X009675Y003600D02*
X009675Y002663D01*
X009425Y002663D02*
X009425Y003600D01*
X009175Y003600D02*
X009175Y002663D01*
X008925Y002663D02*
X008925Y003600D01*
X008675Y003600D02*
X008675Y003059D01*
X008584Y003150D02*
X010244Y003150D01*
X010175Y003219D02*
X010175Y000650D01*
X010675Y001250D02*
X010675Y001926D01*
X010663Y001938D01*
X010663Y001776D01*
X010663Y001938D02*
X011075Y002350D01*
X011075Y002550D01*
X011375Y002850D01*
X011375Y003309D01*
X011168Y003515D01*
X010575Y003515D01*
X010675Y003119D02*
X010675Y002832D01*
X010880Y002900D02*
X008735Y002900D01*
X008375Y002850D02*
X008375Y002180D01*
X008407Y002148D01*
X008663Y002148D02*
X008663Y001738D01*
X008475Y001550D01*
X008125Y002400D02*
X007905Y002400D01*
X007905Y002650D02*
X008068Y002650D01*
X008015Y002900D02*
X007905Y002900D01*
X007838Y003150D02*
X008166Y003150D01*
X008175Y003157D02*
X008175Y003696D01*
X008221Y003650D02*
X002815Y003650D01*
X002925Y003586D02*
X002925Y003714D01*
X003175Y003714D02*
X003175Y003586D01*
X003425Y003542D02*
X003425Y003758D01*
X003675Y003714D02*
X003675Y003586D01*
X003925Y003586D02*
X003925Y003714D01*
X004175Y003781D02*
X004175Y003519D01*
X004425Y003567D02*
X004425Y003733D01*
X004675Y003733D02*
X004675Y003567D01*
X004925Y003489D02*
X004925Y003811D01*
X005161Y003900D02*
X005258Y003900D01*
X005258Y003783D02*
X005426Y003783D01*
X005464Y003794D01*
X005499Y003813D01*
X005527Y003841D01*
X005546Y003876D01*
X005556Y003914D01*
X005556Y004102D01*
X005258Y004102D01*
X005258Y003783D01*
X005425Y003783D02*
X005425Y003517D01*
X005553Y003400D02*
X010158Y003400D01*
X010425Y003119D02*
X010425Y002832D01*
X011175Y002096D02*
X011175Y000650D01*
X010925Y000650D02*
X010925Y000991D01*
X011023Y001150D02*
X012694Y001150D01*
X012675Y001182D02*
X012675Y000650D01*
X012603Y001400D02*
X011003Y001400D01*
X011099Y001650D02*
X011251Y001650D01*
X011425Y001468D02*
X011425Y000650D01*
X012229Y001650D02*
X012575Y001650D01*
X011683Y002150D02*
X011229Y002150D01*
X011217Y002138D02*
X011217Y002138D01*
X011425Y002146D02*
X011425Y002154D01*
X011675Y002146D02*
X011675Y002154D01*
X011687Y002524D02*
X011687Y002550D01*
X011875Y002550D01*
X011875Y003650D01*
X011875Y004150D01*
X012425Y004700D01*
X012425Y004900D01*
X012863Y004650D02*
X014675Y004650D01*
X014675Y004900D02*
X012925Y004900D01*
X012708Y004476D02*
X012524Y004400D01*
X012425Y004346D02*
X012425Y003950D01*
X012675Y003950D02*
X012675Y003850D01*
X012475Y003650D02*
X012375Y003650D01*
X012375Y004150D02*
X012475Y004150D01*
X011997Y004626D02*
X011820Y004449D01*
X011820Y004795D01*
X011810Y004833D01*
X011790Y004867D01*
X011762Y004895D01*
X011728Y004915D01*
X011690Y004925D01*
X011425Y004925D01*
X011425Y004441D01*
X011325Y004441D01*
X011325Y004925D01*
X011060Y004925D01*
X011022Y004915D01*
X010988Y004895D01*
X010960Y004867D01*
X010940Y004833D01*
X010930Y004795D01*
X010930Y004526D01*
X010874Y004581D01*
X010276Y004581D01*
X010275Y004581D01*
X010222Y004602D01*
X010212Y004602D01*
X010212Y004750D01*
X010094Y004867D01*
X009425Y004867D01*
X009425Y004946D01*
X009479Y005000D01*
X010825Y005000D01*
X010917Y005038D01*
X011958Y006080D01*
X011925Y005999D01*
X011925Y006046D01*
X011925Y005999D02*
X011925Y005801D01*
X011925Y004999D01*
X011925Y004801D01*
X011925Y004554D01*
X011997Y004626D02*
X011925Y004801D01*
X011925Y004900D02*
X011754Y004900D01*
X011675Y004925D02*
X011675Y005796D01*
X011779Y005900D02*
X011925Y005900D01*
X011925Y005801D02*
X012001Y005617D01*
X012142Y005476D01*
X012326Y005400D01*
X011279Y005400D01*
X011175Y005296D02*
X011175Y004925D01*
X011325Y004900D02*
X011425Y004900D01*
X011425Y004925D02*
X011425Y005546D01*
X011529Y005650D02*
X011987Y005650D01*
X012175Y005462D02*
X012175Y005338D01*
X012142Y005324D02*
X012001Y005183D01*
X011925Y004999D01*
X011987Y005150D02*
X011029Y005150D01*
X010925Y005046D02*
X010925Y004531D01*
X010930Y004650D02*
X010212Y004650D01*
X010175Y004787D02*
X010175Y005000D01*
X009925Y005000D02*
X009925Y004867D01*
X009675Y004867D02*
X009675Y005000D01*
X009425Y004946D02*
X009425Y004867D01*
X009425Y004900D02*
X010996Y004900D01*
X010675Y005000D02*
X010675Y004581D01*
X010425Y004581D02*
X010425Y005000D01*
X010425Y005500D02*
X010425Y005646D01*
X010429Y005650D02*
X010821Y005650D01*
X010925Y005754D02*
X010925Y006146D01*
X010929Y006150D02*
X011321Y006150D01*
X011425Y006254D02*
X011425Y006646D01*
X011429Y006650D02*
X011821Y006650D01*
X011925Y006754D02*
X011925Y006801D01*
X011939Y006767D01*
X010671Y005500D01*
X010279Y005500D01*
X011017Y006238D01*
X012222Y007443D01*
X012326Y007400D01*
X012179Y007400D01*
X012175Y007396D02*
X012175Y007338D01*
X012142Y007324D02*
X012001Y007183D01*
X011925Y006999D01*
X011925Y007146D01*
X011929Y007150D02*
X011987Y007150D01*
X011925Y006999D02*
X011925Y006801D01*
X011925Y006900D02*
X011679Y006900D01*
X011675Y006896D02*
X011675Y006504D01*
X011571Y006400D02*
X011179Y006400D01*
X011175Y006396D02*
X011175Y006004D01*
X011071Y005900D02*
X010679Y005900D01*
X010675Y005896D02*
X010675Y005504D01*
X009775Y005650D02*
X011675Y007550D01*
X011675Y008150D01*
X012425Y008900D01*
X012863Y008650D02*
X014675Y008650D01*
X014675Y008900D02*
X012925Y008900D01*
X012708Y008476D02*
X012524Y008400D01*
X012326Y008400D01*
X012279Y008400D01*
X012292Y008414D02*
X012326Y008400D01*
X012245Y008367D01*
X012292Y008414D01*
X012326Y008400D02*
X012524Y008400D01*
X012425Y008400D02*
X012425Y008400D01*
X012925Y007801D02*
X012849Y007617D01*
X012708Y007476D01*
X012524Y007400D01*
X012326Y007400D01*
X012142Y007324D01*
X012326Y007400D02*
X012524Y007400D01*
X012425Y007400D02*
X012425Y007400D01*
X012675Y007338D02*
X012675Y007462D01*
X011425Y007654D02*
X011425Y008200D01*
X011425Y008150D02*
X009975Y008150D01*
X009925Y008194D02*
X009925Y012150D01*
X009675Y012150D02*
X009675Y008298D01*
X009425Y008300D02*
X009425Y012150D01*
X009175Y012150D02*
X009175Y008215D01*
X009075Y008150D02*
X007475Y008150D01*
X007425Y008194D02*
X007425Y012150D01*
X007175Y012150D02*
X007175Y008298D01*
X006925Y008300D02*
X006925Y012150D01*
X006175Y012150D02*
X006175Y005400D01*
X006312Y005900D02*
X003493Y005900D01*
X003425Y005853D02*
X003425Y005200D01*
X003675Y005200D02*
X003675Y006119D01*
X003690Y006150D02*
X006396Y006150D01*
X006425Y006100D02*
X006425Y006024D01*
X006300Y006400D02*
X002075Y006400D01*
X002175Y006380D02*
X002175Y006480D01*
X002425Y006480D02*
X002425Y006380D01*
X002675Y006380D02*
X002675Y006480D01*
X002925Y006480D02*
X002925Y006380D01*
X003175Y006380D02*
X003175Y006480D01*
X003425Y006480D02*
X003425Y006380D01*
X003675Y006380D02*
X003675Y006480D01*
X003714Y006650D02*
X006300Y006650D01*
X007750Y006650D02*
X007851Y006650D01*
X007925Y006724D02*
X007925Y012150D01*
X007675Y012150D02*
X007675Y007900D01*
X008875Y007900D01*
X008925Y008000D02*
X008925Y012150D01*
X008675Y012150D02*
X008675Y007350D01*
X008800Y007400D02*
X007750Y007400D01*
X007750Y007150D02*
X008351Y007150D01*
X008425Y007224D02*
X008425Y012150D01*
X008175Y012150D02*
X008175Y006974D01*
X008101Y006900D02*
X007750Y006900D01*
X008425Y006376D02*
X008425Y005216D01*
X008413Y005188D02*
X008413Y004867D01*
X008256Y004867D01*
X008138Y004750D01*
X008138Y004402D01*
X008138Y004400D02*
X007817Y004400D01*
X007825Y004408D02*
X007845Y004442D01*
X007855Y004480D01*
X007855Y004810D01*
X007565Y004810D01*
X007565Y004350D01*
X007725Y004350D01*
X007763Y004360D01*
X007797Y004380D01*
X007825Y004408D01*
X007675Y004350D02*
X007675Y003200D01*
X007425Y003200D02*
X007425Y004350D01*
X007485Y004400D02*
X007565Y004400D01*
X007565Y004650D02*
X007485Y004650D01*
X007675Y004810D02*
X007675Y004890D01*
X007565Y004890D02*
X007855Y004890D01*
X007855Y005220D01*
X007845Y005258D01*
X007825Y005292D01*
X007797Y005320D01*
X007763Y005340D01*
X007725Y005350D01*
X007565Y005350D01*
X007565Y004890D01*
X007565Y004900D02*
X007485Y004900D01*
X007485Y005150D02*
X007565Y005150D01*
X007675Y005350D02*
X007675Y005626D01*
X007699Y005650D02*
X008821Y005650D01*
X008925Y005754D02*
X008925Y006100D01*
X008896Y006150D02*
X008199Y006150D01*
X008175Y006126D02*
X008175Y004787D01*
X008138Y004650D02*
X007855Y004650D01*
X007855Y004900D02*
X008413Y004900D01*
X008413Y005150D02*
X007855Y005150D01*
X007425Y005350D02*
X007425Y005376D01*
X007449Y005400D02*
X008571Y005400D01*
X008675Y005504D02*
X008675Y006626D01*
X008699Y006650D02*
X008800Y006650D01*
X008800Y006400D02*
X008449Y006400D01*
X009033Y005862D02*
X009125Y005900D01*
X009139Y005900D01*
X009033Y005862D02*
X008963Y005792D01*
X008451Y005280D01*
X008413Y005188D01*
X008663Y005138D02*
X009175Y005650D01*
X009775Y005650D01*
X008663Y005138D02*
X008663Y004352D01*
X008125Y004150D02*
X006435Y004150D01*
X006425Y004246D02*
X006425Y004300D01*
X006425Y004054D02*
X006425Y003200D01*
X006175Y003200D02*
X006175Y003802D01*
X006334Y003900D02*
X008125Y003900D01*
X008425Y003600D02*
X008425Y003210D01*
X007175Y003200D02*
X007175Y004300D01*
X006925Y004300D02*
X006925Y003200D01*
X006675Y003200D02*
X006675Y004300D01*
X006075Y004150D02*
X006025Y004200D01*
X006025Y004850D01*
X005525Y005350D01*
X005425Y004951D02*
X005425Y004517D01*
X005553Y004400D02*
X005662Y004400D01*
X005675Y004387D02*
X005675Y003113D01*
X005712Y003150D02*
X005258Y003150D01*
X005258Y003102D02*
X005556Y003102D01*
X005556Y002914D01*
X005546Y002876D01*
X005527Y002841D01*
X005499Y002813D01*
X005464Y002794D01*
X005426Y002783D01*
X005258Y002783D01*
X005258Y003102D01*
X005175Y003102D02*
X005175Y000650D01*
X004925Y000650D02*
X004925Y002811D01*
X005161Y002900D02*
X005258Y002900D01*
X005425Y002783D02*
X005425Y000650D01*
X004675Y000650D02*
X004675Y002733D01*
X004425Y002733D02*
X004425Y000650D01*
X004175Y000650D02*
X004175Y002781D01*
X003925Y002714D02*
X003925Y000650D01*
X003675Y000650D02*
X003675Y002714D01*
X003425Y002758D02*
X003425Y000650D01*
X003175Y000650D02*
X003175Y002714D01*
X002925Y002714D02*
X002925Y000650D01*
X002747Y001900D02*
X005775Y001900D01*
X005645Y002900D02*
X005553Y002900D01*
X005425Y003102D02*
X005425Y003198D01*
X005175Y003198D02*
X005175Y004102D01*
X005258Y004150D02*
X005715Y004150D01*
X005816Y003900D02*
X005553Y003900D01*
X005425Y004102D02*
X005425Y004198D01*
X005175Y004198D02*
X005175Y004721D01*
X004925Y004700D02*
X004925Y004489D01*
X005161Y004400D02*
X005258Y004400D01*
X005645Y004650D02*
X003335Y004650D01*
X003425Y004700D02*
X003425Y004542D01*
X003675Y004586D02*
X003675Y004700D01*
X003925Y004700D02*
X003925Y004586D01*
X004175Y004519D02*
X004175Y004700D01*
X004425Y004700D02*
X004425Y004567D01*
X004675Y004567D02*
X004675Y004700D01*
X005379Y004900D02*
X005621Y004900D01*
X005925Y003822D02*
X005925Y003200D01*
X005258Y003400D02*
X005161Y003400D01*
X002962Y004150D02*
X002962Y004637D01*
X002975Y004650D01*
X002925Y005200D02*
X002925Y005755D01*
X003175Y005762D02*
X003175Y005200D01*
X002075Y005900D02*
X001975Y005900D01*
X001975Y006150D02*
X002075Y006150D01*
X001675Y006380D02*
X001675Y006480D01*
X001425Y006480D02*
X001425Y006380D01*
X001975Y008900D02*
X002075Y008900D01*
X001925Y009080D02*
X001925Y009180D01*
X001975Y009150D02*
X000675Y009150D01*
X001425Y009180D02*
X001425Y009080D01*
X001675Y009080D02*
X001675Y009180D01*
X002425Y009180D02*
X002425Y009080D01*
X002675Y009080D02*
X002675Y009180D01*
X002925Y009180D02*
X002925Y009080D01*
X003175Y009080D02*
X003175Y009180D01*
X003425Y009180D02*
X003425Y009080D01*
X003675Y009080D02*
X003675Y009180D01*
X007750Y007650D02*
X008800Y007650D01*
X010250Y007650D02*
X011421Y007650D01*
X012925Y005900D02*
X014675Y005900D01*
X014675Y005650D02*
X012863Y005650D01*
X012708Y005476D02*
X012524Y005400D01*
X012326Y005400D01*
X012142Y005324D01*
X012326Y005400D02*
X012524Y005400D01*
X012425Y005400D02*
X012425Y005400D01*
X011987Y004650D02*
X011820Y004650D01*
X011425Y004650D02*
X011325Y004650D01*
X010575Y004185D02*
X010540Y004150D01*
X010375Y004150D01*
X010173Y004352D01*
X009943Y004352D01*
X011687Y002524D02*
X012101Y002524D01*
X012175Y002450D01*
X011251Y001900D02*
X011099Y001900D01*
X014481Y010400D02*
X014675Y010400D01*
X014656Y010650D02*
X014675Y010650D01*
X013175Y012131D02*
X013175Y012150D01*
X012925Y012150D02*
X012925Y011956D01*
D20*
X009525Y007050D02*
X008675Y007050D01*
X007075Y005450D01*
X007075Y004900D01*
X007025Y004850D01*
X006575Y004900D02*
X006525Y004850D01*
X006575Y004900D02*
X006575Y005750D01*
X007025Y006200D01*
X007025Y007050D01*
X004540Y004150D02*
X003788Y004150D01*
X003788Y003150D02*
X004540Y003150D01*
D21*
X006075Y004150D03*
X008375Y002850D03*
X010675Y001250D03*
X002975Y004650D03*
M02*
