G75*
G70*
%OFA0B0*%
%FSLAX24Y24*%
%IPPOS*%
%LPD*%
%AMOC8*
5,1,8,0,0,1.08239X$1,22.5*
%
%ADD10R,0.0360X0.0700*%
%ADD11R,0.0433X0.0394*%
%ADD12R,0.0472X0.0472*%
%ADD13R,0.0394X0.0433*%
%ADD14R,0.0138X0.0630*%
%ADD15R,0.0472X0.0217*%
%ADD16R,0.0591X0.0768*%
D10*
X006025Y002650D03*
X006525Y002650D03*
X007025Y002650D03*
X007525Y002650D03*
X007525Y004850D03*
X007025Y004850D03*
X006525Y004850D03*
X006025Y004850D03*
D11*
X005210Y005350D03*
X004540Y005350D03*
X010575Y004185D03*
X010575Y003515D03*
D12*
X002962Y003150D03*
X003788Y003150D03*
X003788Y004150D03*
X002962Y004150D03*
D13*
X004540Y004150D03*
X005210Y004150D03*
X005210Y003150D03*
X004540Y003150D03*
D14*
X008407Y002148D03*
X008663Y002148D03*
X008919Y002148D03*
X009175Y002148D03*
X009431Y002148D03*
X009687Y002148D03*
X009943Y002148D03*
X009943Y004352D03*
X009687Y004352D03*
X009431Y004352D03*
X009175Y004352D03*
X008919Y004352D03*
X008663Y004352D03*
X008407Y004352D03*
D15*
X010663Y002524D03*
X010663Y001776D03*
X011687Y001776D03*
X011687Y002150D03*
X011687Y002524D03*
D16*
X011375Y003309D03*
X011375Y004391D03*
M02*
