G75*
G70*
%OFA0B0*%
%FSLAX24Y24*%
%IPPOS*%
%LPD*%
%AMOC8*
5,1,8,0,0,1.08239X$1,22.5*
%
%ADD10C,0.1050*%
%ADD11C,0.0600*%
%ADD12C,0.0100*%
%ADD13C,0.0320*%
D10*
X002025Y006430D02*
X003075Y006430D01*
X003075Y009130D02*
X002025Y009130D01*
X007025Y007575D02*
X007025Y006525D01*
X009525Y006525D02*
X009525Y007575D01*
D11*
X012425Y007900D03*
X012425Y006900D03*
X012425Y005900D03*
X012425Y004900D03*
X012425Y003900D03*
X012425Y008900D03*
D12*
X002350Y000770D02*
X002143Y000650D01*
X013207Y000650D01*
X002143Y000650D01*
X002175Y000650D02*
X002175Y000669D01*
X002350Y000770D02*
X002555Y000975D01*
X002700Y001225D01*
X002775Y001505D01*
X002775Y001795D01*
X002700Y002075D01*
X002555Y002325D01*
X002350Y002530D01*
X002100Y002675D01*
X001820Y002750D01*
X001530Y002750D01*
X001250Y002675D01*
X001000Y002530D01*
X000795Y002325D01*
X000675Y002118D01*
X000675Y010682D01*
X000675Y002118D01*
X000675Y002150D02*
X000694Y002150D01*
X000675Y002400D02*
X000869Y002400D01*
X000925Y002456D02*
X000925Y010344D01*
X000869Y010400D02*
X000675Y010400D01*
X000795Y010475D02*
X001000Y010270D01*
X001250Y010125D01*
X001530Y010050D01*
X001820Y010050D01*
X002100Y010125D01*
X002350Y010270D01*
X002555Y010475D01*
X002700Y010725D01*
X002775Y011005D01*
X002775Y011295D01*
X002700Y011575D01*
X002555Y011825D01*
X002350Y012030D01*
X002143Y012150D01*
X013207Y012150D01*
X013000Y012030D01*
X012795Y011825D01*
X012650Y011575D01*
X012575Y011295D01*
X012575Y011005D01*
X012650Y010725D01*
X012795Y010475D01*
X013000Y010270D01*
X013250Y010125D01*
X013530Y010050D01*
X013820Y010050D01*
X014100Y010125D01*
X014350Y010270D01*
X014555Y010475D01*
X014675Y010682D01*
X014675Y002118D01*
X014555Y002325D01*
X014350Y002530D01*
X014100Y002675D01*
X013820Y002750D01*
X013530Y002750D01*
X013250Y002675D01*
X013000Y002530D01*
X012795Y002325D01*
X012650Y002075D01*
X012575Y001795D01*
X012575Y001505D01*
X012650Y001225D01*
X012795Y000975D01*
X013000Y000770D01*
X013207Y000650D01*
X013175Y000650D02*
X013175Y000669D01*
X012925Y000650D02*
X012925Y000844D01*
X012869Y000900D02*
X010771Y000900D01*
X010747Y000890D02*
X010879Y000945D01*
X010980Y001046D01*
X011035Y001178D01*
X011035Y001322D01*
X010980Y001454D01*
X010879Y001555D01*
X010747Y001610D01*
X010603Y001610D01*
X010471Y001555D01*
X010416Y001500D01*
X010079Y001500D01*
X008735Y002844D01*
X008735Y002922D01*
X008680Y003054D01*
X008579Y003155D01*
X008447Y003210D01*
X008369Y003210D01*
X007287Y004292D01*
X007217Y004362D01*
X007125Y004400D01*
X006334Y004400D01*
X011225Y004400D01*
X012326Y004400D01*
X012524Y004400D01*
X014675Y004400D01*
X014675Y004150D02*
X012800Y004150D01*
X012810Y004136D02*
X012768Y004193D01*
X012718Y004243D01*
X012661Y004285D01*
X012598Y004317D01*
X012530Y004339D01*
X012475Y004348D01*
X012475Y003950D01*
X012873Y003950D01*
X012864Y004005D01*
X012842Y004073D01*
X012810Y004136D01*
X012675Y004275D02*
X012675Y004462D01*
X012708Y004476D02*
X012849Y004617D01*
X012925Y004801D01*
X012925Y004999D01*
X012849Y005183D01*
X012708Y005324D01*
X012524Y005400D01*
X014675Y005400D01*
X014675Y005150D02*
X012863Y005150D01*
X012675Y005338D02*
X012675Y005462D01*
X012708Y005476D02*
X012849Y005617D01*
X012925Y005801D01*
X012925Y005999D01*
X012849Y006183D01*
X012708Y006324D01*
X012524Y006400D01*
X014675Y006400D01*
X014675Y006650D02*
X012863Y006650D01*
X012849Y006617D02*
X012925Y006801D01*
X012925Y006999D01*
X012849Y007183D01*
X012708Y007324D01*
X012524Y007400D01*
X014675Y007400D01*
X014675Y007150D02*
X012863Y007150D01*
X012925Y006900D02*
X014675Y006900D01*
X014675Y006150D02*
X012863Y006150D01*
X012675Y006338D02*
X012675Y006462D01*
X012708Y006476D02*
X012849Y006617D01*
X012708Y006476D02*
X012524Y006400D01*
X012326Y006400D01*
X010250Y006400D01*
X010250Y006381D02*
X010250Y007719D01*
X010140Y007986D01*
X009936Y008190D01*
X009669Y008300D01*
X009381Y008300D01*
X009114Y008190D01*
X008910Y007986D01*
X008800Y007719D01*
X008800Y006381D01*
X008910Y006114D01*
X009114Y005910D01*
X009381Y005800D01*
X009669Y005800D01*
X009936Y005910D01*
X010140Y006114D01*
X010250Y006381D01*
X010175Y006200D02*
X010175Y004900D01*
X009925Y004900D02*
X009925Y005906D01*
X009911Y005900D02*
X011925Y005900D01*
X011925Y005999D02*
X011925Y006801D01*
X012001Y006617D01*
X012142Y006476D01*
X012326Y006400D01*
X012142Y006324D01*
X012001Y006183D01*
X011925Y005999D01*
X011925Y005801D01*
X011925Y005754D01*
X011939Y005767D02*
X011071Y004900D01*
X003234Y004900D01*
X011071Y004900D01*
X010925Y004900D02*
X010925Y012150D01*
X011175Y012150D02*
X011175Y005004D01*
X011321Y005150D02*
X000675Y005150D01*
X000675Y004900D02*
X002716Y004900D01*
X002675Y004859D02*
X002675Y005755D01*
X002425Y005755D02*
X002425Y002456D01*
X002481Y002400D02*
X008471Y002400D01*
X008425Y002446D02*
X008425Y000650D01*
X008175Y000650D02*
X008175Y002543D01*
X008171Y002545D02*
X008303Y002490D01*
X008381Y002490D01*
X009763Y001108D01*
X009833Y001038D01*
X009925Y001000D01*
X009925Y000650D01*
X009675Y000650D02*
X009675Y001196D01*
X009721Y001150D02*
X002656Y001150D01*
X002675Y001182D02*
X002675Y000650D01*
X002425Y000650D02*
X002425Y000844D01*
X002481Y000900D02*
X010579Y000900D01*
X010603Y000890D02*
X010747Y000890D01*
X010675Y000890D02*
X010675Y000650D01*
X010425Y000650D02*
X010425Y000991D01*
X010416Y001000D02*
X010471Y000945D01*
X010603Y000890D01*
X010416Y001000D02*
X009925Y001000D01*
X010175Y001000D02*
X010175Y000650D01*
X009975Y001250D02*
X010675Y001250D01*
X010425Y001509D02*
X010425Y004400D01*
X010675Y004400D02*
X010675Y001610D01*
X010925Y001509D02*
X010925Y004400D01*
X011175Y004400D02*
X011175Y000650D01*
X010925Y000650D02*
X010925Y000991D01*
X011023Y001150D02*
X012694Y001150D01*
X012675Y001182D02*
X012675Y000650D01*
X012425Y000650D02*
X012425Y003850D01*
X012475Y003850D02*
X012475Y003452D01*
X012530Y003461D01*
X012598Y003483D01*
X012661Y003515D01*
X012718Y003557D01*
X012768Y003607D01*
X012810Y003664D01*
X012842Y003727D01*
X012864Y003795D01*
X012873Y003850D01*
X012475Y003850D01*
X012475Y003950D01*
X012375Y003950D01*
X012375Y004348D01*
X012320Y004339D01*
X012252Y004317D01*
X012189Y004285D01*
X012132Y004243D01*
X012082Y004193D01*
X012040Y004136D01*
X012008Y004073D01*
X011986Y004005D01*
X011977Y003950D01*
X012375Y003950D01*
X012375Y003850D01*
X012475Y003850D01*
X012475Y003900D02*
X014675Y003900D01*
X014675Y003650D02*
X012800Y003650D01*
X012675Y003525D02*
X012675Y002118D01*
X012694Y002150D02*
X009429Y002150D01*
X009425Y002154D02*
X009425Y004400D01*
X009175Y004400D02*
X009175Y002404D01*
X009179Y002400D02*
X012869Y002400D01*
X012925Y002456D02*
X012925Y010344D01*
X012869Y010400D02*
X002481Y010400D01*
X002425Y010344D02*
X002425Y009805D01*
X002175Y009805D02*
X002175Y010169D01*
X002143Y010150D02*
X013207Y010150D01*
X013175Y010169D02*
X013175Y002631D01*
X013207Y002650D02*
X008929Y002650D01*
X008925Y002654D02*
X008925Y004400D01*
X008675Y004400D02*
X008675Y003059D01*
X008584Y003150D02*
X014675Y003150D01*
X014675Y002900D02*
X008735Y002900D01*
X008375Y002850D02*
X009975Y001250D01*
X010175Y001500D02*
X010175Y004400D01*
X009925Y004400D02*
X009925Y001654D01*
X009929Y001650D02*
X012575Y001650D01*
X012603Y001400D02*
X011003Y001400D01*
X011425Y000650D02*
X011425Y004546D01*
X011387Y004508D02*
X011958Y005080D01*
X011925Y004999D01*
X011925Y005046D01*
X011925Y004999D02*
X011925Y004801D01*
X011925Y000650D01*
X011675Y000650D02*
X011675Y004796D01*
X011779Y004900D02*
X011925Y004900D01*
X011925Y004801D02*
X012001Y004617D01*
X012142Y004476D01*
X012326Y004400D01*
X012425Y004400D02*
X012425Y003950D01*
X012375Y003900D02*
X007679Y003900D01*
X007675Y003904D02*
X007675Y004400D01*
X007925Y004400D02*
X007925Y003654D01*
X007929Y003650D02*
X012050Y003650D01*
X012040Y003664D02*
X012082Y003607D01*
X012132Y003557D01*
X012189Y003515D01*
X012252Y003483D01*
X012320Y003461D01*
X012375Y003452D01*
X012375Y003850D01*
X011977Y003850D01*
X011986Y003795D01*
X012008Y003727D01*
X012040Y003664D01*
X012175Y003525D02*
X012175Y000650D01*
X012603Y001900D02*
X009679Y001900D01*
X009675Y001904D02*
X009675Y004400D01*
X009675Y004900D02*
X009675Y005802D01*
X009425Y005800D02*
X009425Y004900D01*
X009175Y004900D02*
X009175Y005885D01*
X009139Y005900D02*
X007411Y005900D01*
X007425Y005906D02*
X007425Y004900D01*
X007175Y004900D02*
X007175Y005802D01*
X007169Y005800D02*
X007436Y005910D01*
X007640Y006114D01*
X007750Y006381D01*
X007750Y007719D01*
X007640Y007986D01*
X007436Y008190D01*
X007169Y008300D01*
X006881Y008300D01*
X006614Y008190D01*
X006410Y007986D01*
X006300Y007719D01*
X006300Y006381D01*
X006410Y006114D01*
X006614Y005910D01*
X006881Y005800D01*
X007169Y005800D01*
X006925Y005800D02*
X006925Y004900D01*
X006675Y004900D02*
X006675Y005885D01*
X006639Y005900D02*
X003493Y005900D01*
X003521Y005921D02*
X003584Y005984D01*
X003637Y006054D01*
X003682Y006131D01*
X003716Y006213D01*
X003738Y006298D01*
X003749Y006380D01*
X002075Y006380D01*
X002075Y006480D01*
X001975Y006480D01*
X001975Y007104D01*
X001893Y007093D01*
X001808Y007071D01*
X001726Y007037D01*
X001649Y006992D01*
X001579Y006939D01*
X001516Y006876D01*
X001463Y006806D01*
X001418Y006729D01*
X001384Y006647D01*
X001362Y006562D01*
X001351Y006480D01*
X001975Y006480D01*
X001975Y006380D01*
X002075Y006380D01*
X002075Y005755D01*
X003119Y005755D01*
X003207Y005767D01*
X003292Y005789D01*
X003374Y005823D01*
X003451Y005868D01*
X003521Y005921D01*
X003425Y005853D02*
X003425Y004900D01*
X003234Y004900D02*
X003179Y004955D01*
X003047Y005010D01*
X002903Y005010D01*
X002771Y004955D01*
X002670Y004854D01*
X002615Y004722D01*
X002615Y004578D01*
X002670Y004446D01*
X002771Y004345D01*
X002903Y004290D01*
X003047Y004290D01*
X003179Y004345D01*
X003234Y004400D01*
X005816Y004400D01*
X005770Y004354D01*
X005715Y004222D01*
X005715Y004078D01*
X005770Y003946D01*
X005871Y003845D01*
X006003Y003790D01*
X006147Y003790D01*
X006279Y003845D01*
X006334Y003900D01*
X006971Y003900D01*
X008015Y002856D01*
X008015Y002778D01*
X008070Y002646D01*
X008171Y002545D01*
X008068Y002650D02*
X002143Y002650D01*
X002175Y002631D02*
X002175Y005755D01*
X002075Y005900D02*
X001975Y005900D01*
X001975Y005756D02*
X001893Y005767D01*
X001808Y005789D01*
X001726Y005823D01*
X001649Y005868D01*
X001579Y005921D01*
X001516Y005984D01*
X001463Y006054D01*
X001418Y006131D01*
X001384Y006213D01*
X001362Y006298D01*
X001351Y006380D01*
X001975Y006380D01*
X001975Y005756D01*
X001925Y005762D02*
X001925Y002722D01*
X001675Y002750D02*
X001675Y005853D01*
X001607Y005900D02*
X000675Y005900D01*
X000675Y005650D02*
X011821Y005650D01*
X011939Y005767D02*
X011925Y005801D01*
X011987Y006150D02*
X010154Y006150D01*
X010250Y006650D02*
X011987Y006650D01*
X012175Y006462D02*
X012175Y006338D01*
X012326Y006400D02*
X012524Y006400D01*
X012425Y006400D02*
X012425Y006400D01*
X012425Y005900D02*
X011175Y004650D01*
X002975Y004650D01*
X002615Y004650D02*
X000675Y004650D01*
X000675Y004400D02*
X002716Y004400D01*
X002675Y004441D02*
X002675Y002118D01*
X002656Y002150D02*
X008721Y002150D01*
X008675Y002196D02*
X008675Y000650D01*
X008925Y000650D02*
X008925Y001946D01*
X008971Y001900D02*
X002747Y001900D01*
X002775Y001650D02*
X009221Y001650D01*
X009175Y001696D02*
X009175Y000650D01*
X009425Y000650D02*
X009425Y001446D01*
X009471Y001400D02*
X002747Y001400D01*
X002925Y000650D02*
X002925Y004290D01*
X003175Y004343D02*
X003175Y000650D01*
X003425Y000650D02*
X003425Y004400D01*
X003675Y004400D02*
X003675Y000650D01*
X003925Y000650D02*
X003925Y004400D01*
X004175Y004400D02*
X004175Y000650D01*
X004425Y000650D02*
X004425Y004400D01*
X004675Y004400D02*
X004675Y000650D01*
X004925Y000650D02*
X004925Y004400D01*
X005175Y004400D02*
X005175Y000650D01*
X005425Y000650D02*
X005425Y004400D01*
X005675Y004400D02*
X005675Y000650D01*
X005925Y000650D02*
X005925Y003822D01*
X005816Y003900D02*
X000675Y003900D01*
X000675Y003650D02*
X007221Y003650D01*
X007175Y003696D02*
X007175Y000650D01*
X006925Y000650D02*
X006925Y003900D01*
X006675Y003900D02*
X006675Y000650D01*
X006425Y000650D02*
X006425Y003900D01*
X006175Y003802D02*
X006175Y000650D01*
X007425Y000650D02*
X007425Y003446D01*
X007471Y003400D02*
X000675Y003400D01*
X000675Y003150D02*
X007721Y003150D01*
X007675Y003196D02*
X007675Y000650D01*
X007925Y000650D02*
X007925Y002946D01*
X007971Y002900D02*
X000675Y002900D01*
X000675Y002650D02*
X001207Y002650D01*
X001175Y002631D02*
X001175Y010169D01*
X001207Y010150D02*
X000675Y010150D01*
X000675Y009900D02*
X014675Y009900D01*
X014675Y009650D02*
X003506Y009650D01*
X003521Y009639D02*
X003451Y009692D01*
X003374Y009737D01*
X003292Y009771D01*
X003207Y009793D01*
X003119Y009805D01*
X002075Y009805D01*
X002075Y009180D01*
X001975Y009180D01*
X001975Y009804D01*
X001893Y009793D01*
X001808Y009771D01*
X001726Y009737D01*
X001649Y009692D01*
X001579Y009639D01*
X001516Y009576D01*
X001463Y009506D01*
X001418Y009429D01*
X001384Y009347D01*
X001362Y009262D01*
X001351Y009180D01*
X001975Y009180D01*
X001975Y009080D01*
X002075Y009080D01*
X002075Y009180D01*
X003749Y009180D01*
X003738Y009262D01*
X003716Y009347D01*
X003682Y009429D01*
X003637Y009506D01*
X003584Y009576D01*
X003521Y009639D01*
X003425Y009707D02*
X003425Y012150D01*
X003675Y012150D02*
X003675Y009441D01*
X003694Y009400D02*
X014675Y009400D01*
X014675Y009150D02*
X012863Y009150D01*
X012849Y009183D02*
X012708Y009324D01*
X012524Y009400D01*
X012326Y009400D01*
X012142Y009324D01*
X012001Y009183D01*
X011925Y008999D01*
X011925Y012150D01*
X011675Y012150D02*
X011675Y005504D01*
X011571Y005400D02*
X000675Y005400D01*
X001425Y006119D02*
X001425Y002722D01*
X000675Y004150D02*
X005715Y004150D01*
X006075Y004150D02*
X007075Y004150D01*
X008375Y002850D01*
X008425Y003210D02*
X008425Y004400D01*
X008175Y004400D02*
X008175Y003404D01*
X008179Y003400D02*
X014675Y003400D01*
X013925Y002722D02*
X013925Y010078D01*
X013675Y010050D02*
X013675Y002750D01*
X013425Y002722D02*
X013425Y010078D01*
X014143Y010150D02*
X014675Y010150D01*
X014425Y010344D02*
X014425Y002456D01*
X014481Y002400D02*
X014675Y002400D01*
X014656Y002150D02*
X014675Y002150D01*
X014675Y002650D02*
X014143Y002650D01*
X014175Y002631D02*
X014175Y010169D01*
X014481Y010400D02*
X014675Y010400D01*
X014656Y010650D02*
X014675Y010650D01*
X013175Y012131D02*
X013175Y012150D01*
X012925Y012150D02*
X012925Y011956D01*
X012869Y011900D02*
X002481Y011900D01*
X002425Y011956D02*
X002425Y012150D01*
X002175Y012131D02*
X002175Y012150D01*
X002675Y012150D02*
X002675Y011618D01*
X002656Y011650D02*
X012694Y011650D01*
X012675Y011618D02*
X012675Y012150D01*
X012425Y012150D02*
X012425Y009400D01*
X012675Y009338D02*
X012675Y010682D01*
X012694Y010650D02*
X002656Y010650D01*
X002675Y010682D02*
X002675Y009805D01*
X002925Y009805D02*
X002925Y012150D01*
X003175Y012150D02*
X003175Y009798D01*
X003175Y009180D02*
X003175Y009080D01*
X002925Y009080D02*
X002925Y009180D01*
X002675Y009180D02*
X002675Y009080D01*
X002425Y009080D02*
X002425Y009180D01*
X002175Y009180D02*
X002175Y009080D01*
X002075Y009080D02*
X003749Y009080D01*
X003738Y008998D01*
X003716Y008913D01*
X003682Y008831D01*
X003637Y008754D01*
X003584Y008684D01*
X003521Y008621D01*
X003451Y008568D01*
X003374Y008523D01*
X003292Y008489D01*
X003207Y008467D01*
X003119Y008455D01*
X002075Y008455D01*
X002075Y009080D01*
X002075Y009150D02*
X011987Y009150D01*
X011925Y008999D02*
X011925Y008801D01*
X011925Y007999D01*
X011925Y007801D01*
X011925Y006999D01*
X011925Y006801D01*
X011925Y006900D02*
X010250Y006900D01*
X010250Y007150D02*
X011987Y007150D01*
X012001Y007183D02*
X011925Y006999D01*
X012001Y007183D02*
X012142Y007324D01*
X012326Y007400D01*
X010250Y007400D01*
X010250Y007650D02*
X011987Y007650D01*
X012001Y007617D02*
X012142Y007476D01*
X012326Y007400D01*
X012524Y007400D01*
X012708Y007476D01*
X012849Y007617D01*
X012925Y007801D01*
X012925Y007999D01*
X012849Y008183D01*
X012708Y008324D01*
X012524Y008400D01*
X014675Y008400D01*
X014675Y008150D02*
X012863Y008150D01*
X012925Y007900D02*
X014675Y007900D01*
X014675Y007650D02*
X012863Y007650D01*
X012675Y007462D02*
X012675Y007338D01*
X012524Y007400D02*
X012326Y007400D01*
X012425Y007400D02*
X012425Y007400D01*
X012175Y007338D02*
X012175Y007462D01*
X012001Y007617D02*
X011925Y007801D01*
X011925Y007900D02*
X010175Y007900D01*
X010175Y012150D01*
X009925Y012150D02*
X009925Y008194D01*
X009975Y008150D02*
X011987Y008150D01*
X012001Y008183D02*
X011925Y007999D01*
X012001Y008183D02*
X012142Y008324D01*
X012326Y008400D01*
X000675Y008400D01*
X000675Y008150D02*
X006575Y008150D01*
X006675Y008215D02*
X006675Y012150D01*
X006425Y012150D02*
X006425Y008000D01*
X006375Y007900D02*
X000675Y007900D01*
X000675Y007650D02*
X006300Y007650D01*
X006300Y007400D02*
X000675Y007400D01*
X000675Y007150D02*
X006300Y007150D01*
X006300Y006900D02*
X003560Y006900D01*
X003584Y006876D02*
X003521Y006939D01*
X003451Y006992D01*
X003374Y007037D01*
X003292Y007071D01*
X003207Y007093D01*
X003119Y007105D01*
X002075Y007105D01*
X002075Y006480D01*
X003749Y006480D01*
X003738Y006562D01*
X003716Y006647D01*
X003682Y006729D01*
X003637Y006806D01*
X003584Y006876D01*
X003675Y006741D02*
X003675Y008819D01*
X003710Y008900D02*
X011925Y008900D01*
X011925Y008801D02*
X012001Y008617D01*
X012142Y008476D01*
X012326Y008400D01*
X012524Y008400D01*
X012708Y008476D01*
X012849Y008617D01*
X012925Y008801D01*
X012925Y008999D01*
X012849Y009183D01*
X012925Y008900D02*
X014675Y008900D01*
X014675Y008650D02*
X012863Y008650D01*
X012675Y008462D02*
X012675Y008338D01*
X012524Y008400D02*
X012326Y008400D01*
X012425Y008400D02*
X012425Y008400D01*
X012175Y008338D02*
X012175Y008462D01*
X011987Y008650D02*
X003550Y008650D01*
X003425Y008553D02*
X003425Y007007D01*
X003175Y007098D02*
X003175Y008462D01*
X002925Y008455D02*
X002925Y007105D01*
X002675Y007105D02*
X002675Y008455D01*
X002425Y008455D02*
X002425Y007105D01*
X002175Y007105D02*
X002175Y008455D01*
X002075Y008650D02*
X001975Y008650D01*
X001925Y008462D02*
X001925Y007098D01*
X001975Y006900D02*
X002075Y006900D01*
X002075Y006650D02*
X001975Y006650D01*
X001925Y006480D02*
X001925Y006380D01*
X001975Y006400D02*
X000675Y006400D01*
X000675Y006650D02*
X001386Y006650D01*
X001425Y006741D02*
X001425Y008819D01*
X001418Y008831D02*
X001463Y008754D01*
X001516Y008684D01*
X001579Y008621D01*
X001649Y008568D01*
X001726Y008523D01*
X001808Y008489D01*
X001893Y008467D01*
X001975Y008456D01*
X001975Y009080D01*
X001351Y009080D01*
X001362Y008998D01*
X001384Y008913D01*
X001418Y008831D01*
X001390Y008900D02*
X000675Y008900D01*
X000675Y008650D02*
X001550Y008650D01*
X001675Y008553D02*
X001675Y007007D01*
X001540Y006900D02*
X000675Y006900D01*
X000675Y006150D02*
X001410Y006150D01*
X001425Y006380D02*
X001425Y006480D01*
X001675Y006480D02*
X001675Y006380D01*
X001975Y006150D02*
X002075Y006150D01*
X002175Y006380D02*
X002175Y006480D01*
X002075Y006400D02*
X006300Y006400D01*
X006300Y006650D02*
X003714Y006650D01*
X003675Y006480D02*
X003675Y006380D01*
X003690Y006150D02*
X006396Y006150D01*
X006425Y006100D02*
X006425Y004900D01*
X006175Y004900D02*
X006175Y012150D01*
X005925Y012150D02*
X005925Y004900D01*
X005675Y004900D02*
X005675Y012150D01*
X005425Y012150D02*
X005425Y004900D01*
X005175Y004900D02*
X005175Y012150D01*
X004925Y012150D02*
X004925Y004900D01*
X004675Y004900D02*
X004675Y012150D01*
X004425Y012150D02*
X004425Y004900D01*
X004175Y004900D02*
X004175Y012150D01*
X003925Y012150D02*
X003925Y004900D01*
X003675Y004900D02*
X003675Y006119D01*
X003425Y006380D02*
X003425Y006480D01*
X003175Y006480D02*
X003175Y006380D01*
X002925Y006380D02*
X002925Y006480D01*
X002675Y006480D02*
X002675Y006380D01*
X002425Y006380D02*
X002425Y006480D01*
X003175Y005762D02*
X003175Y004957D01*
X002925Y005010D02*
X002925Y005755D01*
X006334Y004400D02*
X006334Y004400D01*
X006425Y004400D02*
X006425Y004400D01*
X006675Y004400D02*
X006675Y004400D01*
X006925Y004400D02*
X006925Y004400D01*
X007175Y004379D02*
X007175Y004400D01*
X007425Y004400D02*
X007425Y004154D01*
X007429Y004150D02*
X012050Y004150D01*
X012175Y004275D02*
X012175Y004462D01*
X011987Y004650D02*
X011529Y004650D01*
X011387Y004508D02*
X011387Y004508D01*
X011317Y004438D01*
X011225Y004400D01*
X010675Y004900D02*
X010675Y012150D01*
X010425Y012150D02*
X010425Y004900D01*
X011425Y005254D02*
X011425Y012150D01*
X012175Y012150D02*
X012175Y009338D01*
X012603Y010900D02*
X002747Y010900D01*
X002775Y011150D02*
X012575Y011150D01*
X012603Y011400D02*
X002747Y011400D01*
X001925Y010078D02*
X001925Y009798D01*
X001975Y009650D02*
X002075Y009650D01*
X002075Y009400D02*
X001975Y009400D01*
X001925Y009180D02*
X001925Y009080D01*
X001975Y009150D02*
X000675Y009150D01*
X000675Y009400D02*
X001406Y009400D01*
X001425Y009441D02*
X001425Y010078D01*
X001675Y010050D02*
X001675Y009707D01*
X001594Y009650D02*
X000675Y009650D01*
X001425Y009180D02*
X001425Y009080D01*
X001675Y009080D02*
X001675Y009180D01*
X001975Y008900D02*
X002075Y008900D01*
X003425Y009080D02*
X003425Y009180D01*
X003675Y009180D02*
X003675Y009080D01*
X000795Y010475D02*
X000675Y010682D01*
X000675Y010650D02*
X000694Y010650D01*
X006925Y012150D02*
X006925Y008300D01*
X007175Y008298D02*
X007175Y012150D01*
X007425Y012150D02*
X007425Y008194D01*
X007475Y008150D02*
X009075Y008150D01*
X009175Y008215D02*
X009175Y012150D01*
X008925Y012150D02*
X008925Y008000D01*
X008875Y007900D02*
X007675Y007900D01*
X007675Y012150D01*
X007925Y012150D02*
X007925Y004900D01*
X007675Y004900D02*
X007675Y006200D01*
X007654Y006150D02*
X008896Y006150D01*
X008925Y006100D02*
X008925Y004900D01*
X008675Y004900D02*
X008675Y012150D01*
X008425Y012150D02*
X008425Y004900D01*
X008175Y004900D02*
X008175Y012150D01*
X009425Y012150D02*
X009425Y008300D01*
X009675Y008298D02*
X009675Y012150D01*
X008800Y007650D02*
X007750Y007650D01*
X007750Y007400D02*
X008800Y007400D01*
X008800Y007150D02*
X007750Y007150D01*
X007750Y006900D02*
X008800Y006900D01*
X008800Y006650D02*
X007750Y006650D01*
X007750Y006400D02*
X008800Y006400D01*
X012245Y005367D02*
X012292Y005414D01*
X012326Y005400D01*
X012279Y005400D01*
X012326Y005400D02*
X012524Y005400D01*
X012708Y005476D01*
X012524Y005400D02*
X012326Y005400D01*
X012245Y005367D01*
X012425Y005400D02*
X012425Y005400D01*
X012863Y005650D02*
X014675Y005650D01*
X014675Y005900D02*
X012925Y005900D01*
X012925Y004900D02*
X014675Y004900D01*
X014675Y004650D02*
X012863Y004650D01*
X012708Y004476D02*
X012524Y004400D01*
X012475Y004150D02*
X012375Y004150D01*
X012175Y003950D02*
X012175Y003850D01*
X012375Y003650D02*
X012475Y003650D01*
X012675Y003850D02*
X012675Y003950D01*
D13*
X010675Y001250D03*
X008375Y002850D03*
X006075Y004150D03*
X002975Y004650D03*
M02*
